<svg width="32" height="32" viewBox="0 0 32 32" fill="none" xmlns="http://www.w3.org/2000/svg">
<rect width="32" height="32" rx="16" fill="#FC511F"/>
<path d="M18.0194 24.8017C15.4583 22.9897 14.8548 19.4533 16.68 16.9253C18.5052 14.3972 22.0672 13.7981 24.6136 15.5955C27.1747 17.4075 27.7635 20.9439 25.953 23.4719C24.1279 26.0146 20.5658 26.6137 18.0194 24.8017ZM21.6403 19.7456C21.3901 19.5702 21.0516 19.6287 20.8749 19.8771C20.6983 20.1255 20.7572 20.4616 21.0074 20.637C21.2576 20.8124 21.5962 20.7539 21.7728 20.5055C21.9347 20.2717 21.8906 19.921 21.6403 19.7456Z" fill="white"/>
<path d="M23.3773 13.053C22.0821 13.5937 20.566 12.9946 20.0214 11.7086C19.9036 11.431 19.5798 11.2995 19.3001 11.4164C19.0205 11.5333 18.888 11.8548 19.0058 12.1324C19.5504 13.4183 18.9469 14.9235 17.6516 15.4642C16.3416 16.0195 14.8403 15.4057 14.2809 14.1198C13.074 11.2556 14.4134 7.93847 17.2984 6.72559C20.1833 5.51271 23.5245 6.87172 24.7315 9.72125C25.2908 11.0218 24.6726 12.5123 23.3773 13.053Z" fill="white"/>
<path d="M9.64433 11.7963C10.7924 12.6147 11.0721 14.2075 10.2478 15.3473C10.0712 15.5957 10.1301 15.9318 10.3803 16.1072C10.6305 16.2825 10.9691 16.2241 11.1457 15.9757C11.9699 14.8358 13.5743 14.5582 14.7224 15.3765C15.8705 16.1949 16.1502 17.7877 15.3259 18.9275C13.5007 21.4702 9.95343 22.0547 7.39231 20.2573C4.8312 18.4599 4.24243 14.9235 6.05288 12.3955C6.87715 11.241 8.48153 10.978 9.64433 11.7963Z" fill="white"/>
</svg>
