<?xml version="1.0" encoding="UTF-8" standalone="no"?>
<svg width="37px" height="45px" viewBox="0 0 37 45" version="1.1" xmlns="http://www.w3.org/2000/svg" xmlns:xlink="http://www.w3.org/1999/xlink">
    <!-- Generator: Sketch 3.7.2 (28276) - http://www.bohemiancoding.com/sketch -->
    <title>Logo</title>
    <desc>Created with Sketch.</desc>
    <defs></defs>
    <g id="404" stroke="none" stroke-width="1" fill="none" fill-rule="evenodd">
        <g id="404---v1" transform="translate(-121.000000, -20.000000)" fill="#FFFFFF">
            <g id="Nav" transform="translate(121.000000, 20.000000)">
                <g id="Logo">
                    <path d="M34.976,21.814 L1.46,21.817 C-1.495,21.587 -1.399,7.193 15.75,5.957 C15.913,5.882 15.948,5.865 16.043,5.553 C16.202,4.976 16.293,4.414 16.309,3.882 C16.327,3.232 16.24,2.652 16.045,2.111 C15.871,1.631 15.604,1.174 15.258,0.766 C15.786,0.767 16.309,0.873 16.815,1.08 C17.465,1.34 18.124,1.788 18.718,2.379 C19.269,2.922 19.778,3.586 20.233,4.353 C20.45,4.721 20.647,5.094 20.832,5.495 C20.92,5.69 21.006,5.891 21.086,6.103 C37.825,7.547 37.908,21.584 34.976,21.814" id="Fill-7"></path>
                    <path d="M34.186,23.332 C34.186,23.332 36.836,39.824 20.607,42.939 C19.871,43.567 18.649,45.006 18.204,45 C17.758,45.006 16.536,43.567 15.799,42.939 C-0.521,40.142 2.219,23.332 2.219,23.332 L34.186,23.332" id="Fill-8"></path>
                </g>
            </g>
        </g>
    </g>
</svg>