<svg width="8" height="14" viewBox="0 0 8 14" fill="none" xmlns="http://www.w3.org/2000/svg">
<path d="M3.52734 13.7339C3.67057 13.8556 3.82992 13.9201 4.00537 13.9272C4.18441 13.9344 4.34196 13.8717 4.47803 13.7393L6.13232 12.0796C6.26839 11.9435 6.33464 11.7842 6.33105 11.6016C6.32747 11.4189 6.25944 11.2614 6.12695 11.1289L5.40186 10.4038L6.51367 9.29736C6.64258 9.16488 6.70703 9.00732 6.70703 8.82471C6.70703 8.63851 6.64079 8.47917 6.5083 8.34668L5.52539 7.3584C6.23438 6.986 6.78044 6.50798 7.16357 5.92432C7.54671 5.33708 7.73828 4.68896 7.73828 3.97998C7.73828 3.46436 7.6416 2.98096 7.44824 2.52979C7.25488 2.07861 6.98633 1.68294 6.64258 1.34277C6.30241 0.999023 5.90674 0.732259 5.45557 0.54248C5.00439 0.349121 4.51921 0.252441 4 0.252441C3.48079 0.252441 2.99561 0.349121 2.54443 0.54248C2.09326 0.732259 1.6958 0.997233 1.35205 1.3374C1.0083 1.67757 0.739746 2.07324 0.546387 2.52441C0.356608 2.97559 0.261719 3.46077 0.261719 3.97998C0.261719 4.46696 0.347656 4.92887 0.519531 5.36572C0.694987 5.80257 0.942057 6.19287 1.26074 6.53662C1.57943 6.88037 1.95719 7.15609 2.39404 7.36377V12.3589C2.39404 12.4627 2.41374 12.5719 2.45312 12.6865C2.49251 12.8011 2.55697 12.8978 2.64648 12.9766L3.52734 13.7339ZM4 12.606L3.43604 12.0474V6.52588C3.04932 6.4471 2.7002 6.28597 2.38867 6.04248C2.08073 5.79899 1.83724 5.5 1.6582 5.14551C1.47917 4.78743 1.38965 4.39893 1.38965 3.97998C1.38965 3.62191 1.45768 3.28711 1.59375 2.97559C1.72982 2.66048 1.91602 2.38477 2.15234 2.14844C2.39225 1.90853 2.66976 1.72233 2.98486 1.58984C3.29997 1.45378 3.63835 1.38574 4 1.38574C4.47982 1.38574 4.91667 1.50212 5.31055 1.73486C5.70443 1.96761 6.01774 2.28092 6.25049 2.6748C6.48324 3.0651 6.59961 3.50016 6.59961 3.97998C6.59961 4.39535 6.50651 4.78206 6.32031 5.14014C6.1377 5.49821 5.87988 5.80257 5.54688 6.05322C5.21745 6.30029 4.83252 6.4668 4.39209 6.55273V7.83643L5.375 8.83008L4.34375 9.84521V10.9517L4.99902 11.5962L4 12.606ZM4 3.86719C4.23991 3.86719 4.44401 3.78304 4.6123 3.61475C4.7806 3.44287 4.86475 3.23877 4.86475 3.00244C4.86475 2.76253 4.7806 2.55843 4.6123 2.39014C4.44401 2.22184 4.23991 2.1377 4 2.1377C3.76009 2.1377 3.55599 2.22184 3.3877 2.39014C3.2194 2.55843 3.13525 2.76253 3.13525 3.00244C3.13525 3.23877 3.2194 3.44287 3.3877 3.61475C3.55599 3.78304 3.76009 3.86719 4 3.86719Z" fill="black"/>
</svg>
