<svg width="10" height="10" viewBox="0 0 10 10" fill="none" xmlns="http://www.w3.org/2000/svg">
<path d="M0.391602 5.12207C0.391602 5.34766 0.470378 5.54102 0.62793 5.70215C0.789062 5.8597 0.982422 5.93848 1.20801 5.93848H4.18896V8.91943C4.18896 9.14144 4.26774 9.33122 4.42529 9.48877C4.58285 9.6499 4.77441 9.73047 5 9.73047C5.22559 9.73047 5.41715 9.6499 5.57471 9.48877C5.73584 9.33122 5.81641 9.14144 5.81641 8.91943V5.93848H8.79736C9.01937 5.93848 9.20915 5.8597 9.3667 5.70215C9.52783 5.54102 9.6084 5.34766 9.6084 5.12207C9.6084 4.89648 9.52783 4.70492 9.3667 4.54736C9.20915 4.38623 9.01937 4.30566 8.79736 4.30566H5.81641V1.33008C5.81641 1.10449 5.73584 0.912923 5.57471 0.755371C5.41715 0.594238 5.22559 0.513672 5 0.513672C4.77441 0.513672 4.58285 0.594238 4.42529 0.755371C4.26774 0.912923 4.18896 1.10449 4.18896 1.33008V4.30566H1.20801C0.982422 4.30566 0.789062 4.38623 0.62793 4.54736C0.470378 4.70492 0.391602 4.89648 0.391602 5.12207Z" fill="black"/>
</svg>
