<svg width="14" height="10" viewBox="0 0 14 10" fill="none" xmlns="http://www.w3.org/2000/svg">
<path d="M3.37451 7.59814H4.69043C4.84798 7.59814 4.9751 7.5516 5.07178 7.4585C5.16846 7.36182 5.2168 7.23828 5.2168 7.08789V6.09424C5.2168 5.94027 5.16846 5.81673 5.07178 5.72363C4.9751 5.62695 4.84798 5.57861 4.69043 5.57861H3.37451C3.21696 5.57861 3.08984 5.62695 2.99316 5.72363C2.89648 5.81673 2.84814 5.94027 2.84814 6.09424V7.08789C2.84814 7.23828 2.89648 7.36182 2.99316 7.4585C3.08984 7.5516 3.21696 7.59814 3.37451 7.59814ZM1.46777 4.08545H12.5322V2.76416H1.46777V4.08545ZM2.46143 9.88086H11.5332C12.1455 9.88086 12.6146 9.71794 12.9404 9.39209C13.2663 9.06982 13.4292 8.60433 13.4292 7.99561V2.25928C13.4292 1.65055 13.2663 1.18506 12.9404 0.862793C12.6146 0.536947 12.1455 0.374023 11.5332 0.374023H2.46143C1.84912 0.374023 1.38005 0.536947 1.0542 0.862793C0.728353 1.18506 0.56543 1.65055 0.56543 2.25928V7.99561C0.56543 8.60433 0.728353 9.06982 1.0542 9.39209C1.38005 9.71794 1.84912 9.88086 2.46143 9.88086ZM2.61182 8.49512C2.39697 8.49512 2.23226 8.44141 2.11768 8.33398C2.00667 8.22298 1.95117 8.05469 1.95117 7.8291V2.43115C1.95117 2.20199 2.00667 2.03369 2.11768 1.92627C2.23226 1.81527 2.39697 1.75977 2.61182 1.75977H11.3828C11.5977 1.75977 11.7606 1.81527 11.8716 1.92627C11.9862 2.03369 12.0435 2.20199 12.0435 2.43115V7.8291C12.0435 8.05469 11.9862 8.22298 11.8716 8.33398C11.7606 8.44141 11.5977 8.49512 11.3828 8.49512H2.61182Z" fill="black"/>
</svg>
