<svg version="1.1" xmlns="http://www.w3.org/2000/svg" xmlns:xlink="http://www.w3.org/1999/xlink" width="10.1562" height="9.63379">
 <g>
  <rect height="9.63379" opacity="0" width="10.1562" x="0" y="0"/>
  <path d="M0.551758 9.44336C0.673828 9.44336 0.800781 9.39941 0.957031 9.31152L3.44238 7.97363L6.14258 9.4873C6.31836 9.58496 6.50879 9.63379 6.68945 9.63379C6.86035 9.63379 7.03125 9.58984 7.17773 9.50684L9.73145 8.05664C10.0244 7.89551 10.1562 7.66113 10.1562 7.33398L10.1562 0.756836C10.1562 0.395508 9.95605 0.195312 9.60449 0.195312C9.48242 0.195312 9.35547 0.234375 9.19434 0.322266L6.60645 1.7627L3.95508 0.136719C3.80371 0.0488281 3.63281 0 3.46191 0C3.28613 0 3.11035 0.0488281 2.95898 0.136719L0.419922 1.58203C0.131836 1.74805 0 1.98242 0 2.30957L0 8.87695C0 9.23828 0.200195 9.44336 0.551758 9.44336ZM3.125 7.19727L0.922852 8.4082C0.898438 8.41797 0.874023 8.43262 0.849609 8.43262C0.810547 8.43262 0.786133 8.40332 0.786133 8.35449L0.786133 2.5C0.786133 2.38281 0.830078 2.2998 0.947266 2.23145L2.94922 1.05957C3.0127 1.02539 3.06641 0.996094 3.125 0.961914ZM3.91113 7.27539L3.91113 1.06445C3.95996 1.09375 4.01855 1.12305 4.06738 1.15234L6.24512 2.48047L6.24512 8.58398C6.17676 8.54492 6.10352 8.51074 6.03027 8.47168ZM7.03125 8.67188L7.03125 2.43164L9.2334 1.23047C9.25781 1.21582 9.28223 1.20605 9.30176 1.20605C9.3457 1.20605 9.37012 1.23535 9.37012 1.28418L9.37012 7.13867C9.37012 7.26074 9.32129 7.34375 9.20898 7.41211L7.25098 8.5498C7.17773 8.59375 7.10449 8.6377 7.03125 8.67188Z" fill="#000000" fill-opacity="0.85"/>
 </g>
</svg>
