<svg version="1.1" xmlns="http://www.w3.org/2000/svg" xmlns:xlink="http://www.w3.org/1999/xlink" width="9.73145" height="8.99902">
 <g>
  <rect height="8.99902" opacity="0" width="9.73145" x="0" y="0"/>
  <path d="M1.5332 8.99902L8.20312 8.99902C9.22363 8.99902 9.73145 8.49121 9.73145 7.48535L9.73145 1.52344C9.73145 0.517578 9.22363 0.00976562 8.20312 0.00976562L1.5332 0.00976562C0.512695 0.00976562 0 0.512695 0 1.52344L0 7.48535C0 8.49609 0.512695 8.99902 1.5332 8.99902ZM1.45996 8.21289C1.02539 8.21289 0.786133 7.9834 0.786133 7.5293L0.786133 2.9248C0.786133 2.47559 1.02539 2.24121 1.45996 2.24121L8.2666 2.24121C8.70117 2.24121 8.94531 2.47559 8.94531 2.9248L8.94531 7.5293C8.94531 7.9834 8.70117 8.21289 8.2666 8.21289ZM2.30957 4.05762L7.43652 4.05762C7.60742 4.05762 7.73926 3.9209 7.73926 3.75C7.73926 3.58398 7.60742 3.45703 7.43652 3.45703L2.30957 3.45703C2.12891 3.45703 2.00195 3.58398 2.00195 3.75C2.00195 3.9209 2.12891 4.05762 2.30957 4.05762ZM2.30957 5.52734L7.43652 5.52734C7.60742 5.52734 7.73926 5.40039 7.73926 5.23438C7.73926 5.05859 7.60742 4.92676 7.43652 4.92676L2.30957 4.92676C2.12891 4.92676 2.00195 5.05859 2.00195 5.23438C2.00195 5.40039 2.12891 5.52734 2.30957 5.52734ZM2.30957 6.99707L5.56641 6.99707C5.7373 6.99707 5.86914 6.87012 5.86914 6.7041C5.86914 6.5332 5.7373 6.39648 5.56641 6.39648L2.30957 6.39648C2.12891 6.39648 2.00195 6.5332 2.00195 6.7041C2.00195 6.87012 2.12891 6.99707 2.30957 6.99707Z" fill="#000000" fill-opacity="0.85"/>
 </g>
</svg>
