<svg width="40" height="40" viewBox="0 0 40 40" fill="none" xmlns="http://www.w3.org/2000/svg">
<path d="M26.7047 25.714C19.143 29.2413 14.4502 26.2901 11.4461 24.4976C11.2602 24.3847 10.9443 24.524 11.2184 24.8327C12.2192 26.0221 15.499 28.8889 19.7802 28.8889C24.0643 28.8889 26.6129 26.5977 26.9317 26.198C27.2484 25.8017 27.0247 25.5831 26.7046 25.714H26.7047ZM28.8284 24.5645C28.6253 24.3053 27.5936 24.257 26.9444 24.3352C26.2941 24.4111 25.318 24.8006 25.4028 25.0345C25.4464 25.1221 25.5353 25.0828 25.982 25.0435C26.4299 24.9997 27.6848 24.8444 27.9463 25.1795C28.209 25.5168 27.5461 27.1239 27.425 27.3831C27.308 27.6422 27.4697 27.7091 27.6894 27.5364C27.9061 27.3639 28.2985 26.917 28.5617 26.2846C28.8232 25.6488 28.9827 24.7618 28.8283 24.5645H28.8284Z" fill="#FF9900"/>
<path fill-rule="evenodd" clip-rule="evenodd" d="M21.6213 18.4804C21.6213 19.3796 21.6449 20.1295 21.1725 20.9281C20.7912 21.5774 20.1871 21.9767 19.5123 21.9767C18.5911 21.9767 18.0545 21.3014 18.0545 20.3048C18.0545 18.3375 19.8868 17.9804 21.6213 17.9804V18.4804ZM24.0407 24.1063C23.882 24.2426 23.6526 24.2524 23.4738 24.1615C22.6774 23.5252 22.5357 23.2298 22.097 22.6227C20.7811 23.9148 19.8497 24.3011 18.1423 24.3011C16.1244 24.3011 14.552 23.1032 14.552 20.7041C14.552 18.831 15.6082 17.5551 17.1097 16.9319C18.4122 16.3799 20.231 16.2826 21.6213 16.13V15.8313C21.6213 15.2827 21.6651 14.6334 21.3311 14.1595C21.0375 13.7342 20.4773 13.5589 19.9846 13.5589C19.0702 13.5589 18.2536 14.0101 18.0545 14.9451C18.014 15.1529 17.8555 15.3574 17.6395 15.3671L15.3112 15.1269C15.1155 15.0847 14.8996 14.9321 14.9536 14.6431C15.4901 11.9293 18.0376 11.1111 20.3187 11.1111C21.4862 11.1111 23.0114 11.4098 23.9326 12.2604C25.1002 13.3089 24.9888 14.7081 24.9888 16.2306V19.8276C24.9888 20.9086 25.4544 21.3826 25.8931 21.967C26.0483 22.1747 26.0821 22.4248 25.8863 22.5805C25.397 22.9733 24.5265 23.7038 24.0473 24.1128L24.0406 24.1063" fill="white"/>
</svg>
