<svg width="22" height="26" viewBox="0 0 22 26" fill="none" xmlns="http://www.w3.org/2000/svg">
<path d="M5.89099 22.5036H2.10789C1.21091 22.5036 0.762419 22.5036 0.493821 22.3305C0.203539 22.1434 0.020433 21.8295 0.00100961 21.4857C-0.0169624 21.1676 0.205229 20.7797 0.649605 20.0038L8.93254 5.5423C9.38333 4.75517 9.60875 4.3616 9.89555 4.2151C10.2054 4.05681 10.5728 4.05654 10.8829 4.21438C11.1699 4.36046 11.3959 4.7537 11.8479 5.54018L13.7582 8.86424C14.0869 9.43614 14.2512 9.72209 14.3235 10.0238C14.4021 10.3522 14.4023 10.6944 14.3239 11.0228C14.2519 11.3246 14.0878 11.6107 13.7596 12.1829L8.80654 20.8184C8.4736 21.399 8.3071 21.6892 8.079 21.9062C7.83068 22.1424 7.52959 22.3165 7.20047 22.414C6.89807 22.5036 6.56239 22.5036 5.89099 22.5036Z" fill="white"/>
<path d="M19.3872 22.5036H15.0011C14.096 22.5036 13.6434 22.5036 13.374 22.329C13.0829 22.1403 12.9003 21.824 12.8831 21.4786C12.8672 21.159 13.0949 20.7695 13.5504 19.9907L15.7399 16.2472C16.1896 15.4782 16.4145 15.0937 16.6993 14.9497C17.007 14.794 17.3708 14.7938 17.6788 14.949C17.9638 15.0925 18.1892 15.4768 18.6401 16.2451L20.8367 19.9886C21.294 20.7679 21.5226 21.1576 21.507 21.4775C21.4901 21.8232 21.3076 22.1398 21.0164 22.3288C20.7469 22.5036 20.2937 22.5036 19.3872 22.5036Z" fill="white"/>
</svg>
