<svg width="40" height="40" viewBox="0 0 40 40" fill="none" xmlns="http://www.w3.org/2000/svg">
<path d="M28.8501 23.9925C29.0623 24.2839 29.0199 24.6586 28.7652 24.8667C28.4681 25.0749 28.0437 25.0332 27.8315 24.7835L26.3459 22.9102L24.9029 24.7418C24.6906 25.0332 24.2662 25.0332 23.9691 24.8251C23.672 24.617 23.6296 24.2423 23.8418 23.9509L25.5395 21.7863L23.8418 19.6216C23.6296 19.3302 23.7144 18.9139 23.9691 18.7058C24.2662 18.4977 24.6906 18.5809 24.9029 18.8307L26.3459 20.7039L27.8315 18.9139C28.0437 18.6226 28.4257 18.5809 28.7652 18.7891C29.0623 18.9972 29.0623 19.4135 28.8501 19.7049L27.1948 21.8279L28.8501 23.9925V23.9925ZM21.1254 23.7428C20.0218 23.7428 19.1305 22.9102 19.1305 21.8279C19.1305 20.7872 20.0218 19.913 21.1254 19.913C22.2289 19.913 23.1202 20.7872 23.1202 21.8279C23.0778 22.9102 22.1865 23.7428 21.1254 23.7428ZM15.2682 23.7428C14.1646 23.7428 13.2733 22.9102 13.2733 21.8279C13.2733 20.7872 14.1646 19.913 15.2682 19.913C16.3717 19.913 17.263 20.7872 17.263 21.8279C17.263 22.9102 16.3717 23.7428 15.2682 23.7428V23.7428ZM21.1254 18.6642C19.8945 18.6642 18.791 19.3302 18.2392 20.3293C17.6874 19.3302 16.5839 18.6642 15.3106 18.6642C14.5466 18.6642 13.8675 18.914 13.3158 19.2886V16.6244C13.3158 16.2914 13.0186 16 12.6791 16C12.2971 16 12 16.2914 12 16.6244V21.8695C12.0424 23.6179 13.4855 24.9916 15.2682 24.9916C16.5415 24.9916 17.645 24.2839 18.1968 23.2849C18.7485 24.2839 19.8521 24.9916 21.0829 24.9916C22.908 24.9916 24.3935 23.5763 24.3935 21.7863C24.436 20.0795 22.9505 18.6642 21.1254 18.6642V18.6642Z" fill="white"/>
</svg>
