<svg id="Layer_1" data-name="Layer 1" xmlns="http://www.w3.org/2000/svg" xmlns:xlink="http://www.w3.org/1999/xlink" viewBox="0 0 86.4 86.4"><defs><style>.cls-2{fill:#fff;}</style><symbol id="RGB_Dollar" data-name="RGB Dollar" viewBox="0 0 86.4 86.4"><path class="cls-2" d="M45.4,28.33A18,18,0,0,1,57,32.59a1.77,1.77,0,0,0,2.43-.05l3.34-3.35a1.71,1.71,0,0,0-.09-2.51,26.48,26.48,0,0,0-8.93-5l1-4.93a1.74,1.74,0,0,0-1.71-2.09H46.61a1.75,1.75,0,0,0-1.71,1.37L44,20.44c-8.56.42-15.82,4.66-15.82,13.35,0,7.51,6,10.74,12.34,13,6,2.23,9.18,3.06,9.18,6.2s-3.17,5.12-7.84,5.12a17.26,17.26,0,0,1-12.19-4.77,1.74,1.74,0,0,0-2.44,0l-3.58,3.5a1.73,1.73,0,0,0,0,2.49A23.71,23.71,0,0,0,34,65l-1,4.57a1.78,1.78,0,0,0,1.7,2.14h6.45a1.75,1.75,0,0,0,1.72-1.38L43.8,66c10.26-.63,16.53-6.15,16.53-14.23,0-7.44-6.25-10.58-13.84-13.14C42.15,37,38.4,35.93,38.4,32.71S41.9,28.33,45.4,28.33Z"/></symbol></defs><title>Cash App</title><use width="86.4" height="86.4" xlink:href="#RGB_Dollar"/></svg>