<svg width="120" height="120" viewBox="0 0 120 120" fill="none" xmlns="http://www.w3.org/2000/svg">
<path d="M59.971 120C68.1761 120 75.8974 118.432 83.135 115.295C90.3725 112.197 96.7586 107.88 102.293 102.343C107.828 96.8054 112.163 90.4163 115.298 83.1752C118.433 75.9342 120 68.2091 120 60C120 51.7909 118.433 44.0658 115.298 36.8248C112.163 29.5837 107.828 23.2139 102.293 17.7154C96.7586 12.1781 90.3725 7.84124 83.135 4.70474C75.8974 1.56825 68.1568 0 59.9129 0C51.7078 0 43.9865 1.56825 36.7489 4.70474C29.5501 7.84124 23.1834 12.1781 17.6488 17.7154C12.1529 23.2139 7.83745 29.5837 4.70247 36.8248C1.56749 44.0658 0 51.7909 0 60C0 68.2091 1.56749 75.9342 4.70247 83.1752C7.83745 90.4163 12.1529 96.8054 17.6488 102.343C23.1834 107.88 29.5694 112.197 36.807 115.295C44.0445 118.432 51.7658 120 59.971 120ZM53.5269 88.635C52.4045 88.635 51.3982 88.4027 50.508 87.938C49.6178 87.4734 48.747 86.7183 47.8955 85.6728L33.672 68.364C33.1688 67.7057 32.7818 67.0281 32.5109 66.3311C32.24 65.6341 32.1045 64.9177 32.1045 64.182C32.1045 62.7106 32.6076 61.4521 33.6139 60.4066C34.6589 59.3224 35.9168 58.7803 37.3875 58.7803C38.3164 58.7803 39.1485 58.9739 39.8839 59.3611C40.6193 59.7483 41.374 60.4259 42.148 61.394L53.2946 75.5663L77.3295 37.1152C78.568 35.1016 80.1355 34.0949 82.0319 34.0949C83.464 34.0949 84.7412 34.5595 85.8636 35.4889C87.0247 36.4182 87.6052 37.6379 87.6052 39.1481C87.6052 39.8064 87.4504 40.5034 87.1408 41.2391C86.8312 41.9361 86.4828 42.5944 86.0958 43.2139L58.926 85.6147C58.2293 86.6215 57.4165 87.3766 56.4877 87.88C55.5975 88.3834 54.6105 88.635 53.5269 88.635Z" fill="#264E25"/>
</svg>
