<svg width="5" height="8" viewBox="0 0 5 8" fill="none" xmlns="http://www.w3.org/2000/svg">
<path d="M5 4C4.99693 3.88937 4.97393 3.78894 4.931 3.69869C4.88807 3.60553 4.81907 3.51528 4.72401 3.42795L1.25115 0.196507C1.11009 0.0655022 0.938362 0 0.735971 0C0.604109 0 0.481447 0.0320233 0.367985 0.0960699C0.254523 0.157205 0.16406 0.240175 0.0965961 0.344978C0.0321987 0.449782 0 0.56623 0 0.694323C0 0.889374 0.0781969 1.05968 0.234591 1.20524L3.26587 3.99563L0.234591 6.79039C0.0781969 6.94178 0 7.11354 0 7.30568C0 7.43377 0.0321987 7.55022 0.0965961 7.65502C0.16406 7.75983 0.254523 7.84279 0.367985 7.90393C0.481447 7.96798 0.604109 8 0.735971 8C0.938362 8 1.11009 7.93304 1.25115 7.79913L4.72401 4.56769C4.81907 4.48035 4.88807 4.39156 4.931 4.30131C4.977 4.20815 5 4.10771 5 4Z" fill="#CED6DF"/>
</svg>
