<svg width="14" height="15" viewBox="0 0 14 15" fill="none" xmlns="http://www.w3.org/2000/svg">
<path d="M6.83936 14.1201C7.76188 14.1201 8.62728 13.9445 9.43555 13.5933C10.2438 13.2463 10.9548 12.7638 11.5684 12.146C12.1862 11.5324 12.6707 10.8215 13.022 10.0132C13.3732 9.20492 13.5488 8.33952 13.5488 7.41699C13.5488 6.4987 13.3732 5.63542 13.022 4.82715C12.6707 4.01888 12.1862 3.30583 11.5684 2.68799C10.9548 2.07015 10.2417 1.58773 9.4292 1.24072C8.62093 0.889486 7.75765 0.713867 6.83936 0.713867C5.92106 0.713867 5.05566 0.889486 4.24316 1.24072C3.4349 1.58773 2.72184 2.07015 2.104 2.68799C1.4904 3.30583 1.00798 4.01888 0.656738 4.82715C0.309733 5.63542 0.13623 6.4987 0.13623 7.41699C0.13623 8.33952 0.309733 9.20492 0.656738 10.0132C1.00798 10.8215 1.49251 11.5324 2.11035 12.146C2.72819 12.7638 3.44124 13.2463 4.24951 13.5933C5.05778 13.9445 5.92106 14.1201 6.83936 14.1201ZM6.83936 12.4507C6.14535 12.4507 5.49365 12.3195 4.88428 12.0571C4.2749 11.799 3.73958 11.4414 3.27832 10.9844C2.81706 10.5231 2.45736 9.98779 2.19922 9.37842C1.94108 8.76904 1.81201 8.11523 1.81201 7.41699C1.81201 6.71875 1.94108 6.06706 2.19922 5.46191C2.45736 4.85254 2.81706 4.31722 3.27832 3.85596C3.73958 3.39469 4.27279 3.03499 4.87793 2.77686C5.4873 2.51449 6.14111 2.3833 6.83936 2.3833C7.5376 2.3833 8.19141 2.51449 8.80078 2.77686C9.41016 3.03499 9.94336 3.39469 10.4004 3.85596C10.8617 4.31722 11.2235 4.85254 11.4858 5.46191C11.7482 6.06706 11.8794 6.71875 11.8794 7.41699C11.8794 8.11523 11.7482 8.76904 11.4858 9.37842C11.2277 9.98779 10.868 10.5231 10.4067 10.9844C9.94548 11.4414 9.41016 11.799 8.80078 12.0571C8.19141 12.3195 7.5376 12.4507 6.83936 12.4507ZM3.91943 7.41699C3.91943 7.61589 3.98503 7.78304 4.11621 7.91846C4.2474 8.04964 4.41455 8.11523 4.61768 8.11523H6.13477V9.63232C6.13477 9.83545 6.20036 10.0026 6.33154 10.1338C6.46696 10.265 6.63411 10.3306 6.83301 10.3306C7.04036 10.3306 7.20964 10.265 7.34082 10.1338C7.47624 10.0026 7.54395 9.83545 7.54395 9.63232V8.11523H9.06104C9.26416 8.11523 9.43132 8.04964 9.5625 7.91846C9.69368 7.78304 9.75928 7.61589 9.75928 7.41699C9.75928 7.20964 9.69368 7.04036 9.5625 6.90918C9.43132 6.77376 9.26416 6.70605 9.06104 6.70605H7.54395V5.18896C7.54395 4.98584 7.47624 4.81868 7.34082 4.6875C7.20964 4.55632 7.04036 4.49072 6.83301 4.49072C6.63411 4.49072 6.46696 4.55632 6.33154 4.6875C6.20036 4.81868 6.13477 4.98584 6.13477 5.18896V6.70605H4.61768C4.41455 6.70605 4.2474 6.77376 4.11621 6.90918C3.98503 7.04036 3.91943 7.20964 3.91943 7.41699Z" fill="black"/>
</svg>
