<?xml version="1.0" encoding="UTF-8"?>
<!--Generator: Apple Native CoreSVG 175.5-->
<!DOCTYPE svg
PUBLIC "-//W3C//DTD SVG 1.1//EN"
       "http://www.w3.org/Graphics/SVG/1.1/DTD/svg11.dtd">
<svg version="1.1" xmlns="http://www.w3.org/2000/svg" xmlns:xlink="http://www.w3.org/1999/xlink" width="20.6543" height="15.0205">
 <g>
  <rect height="15.0205" opacity="0" width="20.6543" x="0" y="0"/>
  <path d="M3.59473 12.2959C3.07617 12.2959 2.7334 11.9443 2.7334 11.4521L2.7334 9.82617C2.7334 9.3252 3.07617 8.98242 3.59473 8.98242L5.74805 8.98242C6.2666 8.98242 6.60938 9.3252 6.60938 9.82617L6.60938 11.4521C6.60938 11.9443 6.2666 12.2959 5.74805 12.2959ZM0 5.5459L0 3.55078L20.6543 3.55078L20.6543 5.5459ZM2.75977 15.0205L17.8945 15.0205C19.7402 15.0205 20.6543 14.1152 20.6543 12.3047L20.6543 2.7334C20.6543 0.922852 19.7402 0.00878906 17.8945 0.00878906L2.75977 0.00878906C0.922852 0.00878906 0 0.922852 0 2.7334L0 12.3047C0 14.1152 0.922852 15.0205 2.75977 15.0205Z" fill="#000000" fill-opacity="0.6"/>
 </g>
</svg>
