<svg version="1.1" xmlns="http://www.w3.org/2000/svg" xmlns:xlink="http://www.w3.org/1999/xlink" width="28.6865" height="20.8618">
 <g>
  <rect height="20.8618" opacity="0" width="28.6865" x="0" y="0"/>
  <path d="M4.99268 17.0776C4.27246 17.0776 3.79639 16.5894 3.79639 15.9058L3.79639 13.6475C3.79639 12.9517 4.27246 12.4756 4.99268 12.4756L7.9834 12.4756C8.70361 12.4756 9.17969 12.9517 9.17969 13.6475L9.17969 15.9058C9.17969 16.5894 8.70361 17.0776 7.9834 17.0776ZM0 7.70264L0 4.93164L28.6865 4.93164L28.6865 7.70264ZM3.83301 20.8618L24.8535 20.8618C27.417 20.8618 28.6865 19.6045 28.6865 17.0898L28.6865 3.79639C28.6865 1.28174 27.417 0.012207 24.8535 0.012207L3.83301 0.012207C1.28174 0.012207 0 1.28174 0 3.79639L0 17.0898C0 19.6045 1.28174 20.8618 3.83301 20.8618Z" fill="#28cd41"/>
 </g>
</svg>
