<svg width="40" height="40" viewBox="0 0 40 40" fill="none" xmlns="http://www.w3.org/2000/svg">
<path d="M26.3588 14.5003C25.1937 13.9551 23.9478 13.5589 22.6453 13.3333C22.4853 13.6225 22.2984 14.0115 22.1696 14.321C20.785 14.1127 19.4131 14.1127 18.054 14.321C17.9252 14.0115 17.734 13.6225 17.5726 13.3333C16.2687 13.5589 15.0214 13.9566 13.8563 14.5032C11.5061 18.0546 10.869 21.5178 11.1876 24.9318C12.7463 26.0958 14.2569 26.8029 15.742 27.2657C16.1087 26.761 16.4358 26.2245 16.7175 25.6591C16.1809 25.4552 15.667 25.2036 15.1814 24.9115C15.3102 24.8161 15.4363 24.7163 15.558 24.6137C18.5198 25.9989 21.7378 25.9989 24.6642 24.6137C24.7873 24.7163 24.9133 24.8161 25.0407 24.9115C24.5537 25.2051 24.0384 25.4567 23.5018 25.6606C23.7836 26.2245 24.1092 26.7624 24.4773 27.2671C25.9638 26.8044 27.4759 26.0973 29.0346 24.9318C29.4084 20.9741 28.3961 17.5427 26.3588 14.5003ZM17.121 22.8322C16.2319 22.8322 15.5028 22.0022 15.5028 20.9914C15.5028 19.9806 16.2163 19.1492 17.121 19.1492C18.0257 19.1492 18.7548 19.9792 18.7392 20.9914C18.7406 22.0022 18.0257 22.8322 17.121 22.8322ZM23.1012 22.8322C22.2121 22.8322 21.483 22.0022 21.483 20.9914C21.483 19.9806 22.1965 19.1492 23.1012 19.1492C24.0058 19.1492 24.735 19.9792 24.7194 20.9914C24.7194 22.0022 24.0058 22.8322 23.1012 22.8322Z" fill="white"/>
</svg>
