<svg width="40" height="40" viewBox="0 0 40 40" fill="none" xmlns="http://www.w3.org/2000/svg">
<path d="M20 11C15.0305 11 11 15.0298 11 20C11 23.9765 13.5785 27.35 17.1552 28.5402C17.6045 28.6235 17.75 28.3445 17.75 28.1075V26.432C15.2465 26.9765 14.7253 25.37 14.7253 25.37C14.3158 24.3297 13.7255 24.053 13.7255 24.053C12.9088 23.4942 13.7878 23.5062 13.7878 23.5062C14.6915 23.5692 15.167 24.434 15.167 24.434C15.9695 25.8095 17.2723 25.412 17.786 25.1818C17.8663 24.6005 18.0995 24.203 18.3575 23.9788C16.3588 23.75 14.2572 22.9782 14.2572 19.5305C14.2572 18.5472 14.609 17.7447 15.1842 17.1147C15.0912 16.8875 14.783 15.9718 15.272 14.7328C15.272 14.7328 16.028 14.4912 17.7477 15.6552C18.4655 15.4557 19.235 15.356 20 15.3522C20.765 15.356 21.5352 15.4557 22.2545 15.6552C23.9727 14.4912 24.7272 14.7328 24.7272 14.7328C25.217 15.9725 24.9087 16.8882 24.8157 17.1147C25.3932 17.7447 25.742 18.548 25.742 19.5305C25.742 22.9872 23.6367 23.7485 21.6328 23.9713C21.9553 24.2503 22.25 24.7978 22.25 25.6378V28.1075C22.25 28.3467 22.394 28.628 22.8507 28.5395C26.4245 27.3477 29 23.975 29 20C29 15.0298 24.9702 11 20 11Z" fill="black"/>
</svg>
