<svg width="40" height="40" viewBox="0 0 40 40" fill="none" xmlns="http://www.w3.org/2000/svg">
<path d="M28.8879 20.2053C28.8879 19.6012 28.8379 18.9938 28.7313 18.3994H20.1786V21.8218H25.0763C24.8731 22.9256 24.2201 23.902 23.2639 24.5225V26.7431H26.1858C27.9017 25.1952 28.8879 22.9093 28.8879 20.2053Z" fill="#4285F4"/>
<path d="M20.1773 28.8841C22.6228 28.8841 24.6852 28.097 26.1878 26.7385L23.2658 24.5179C22.4529 25.06 21.4034 25.367 20.1806 25.367C17.8151 25.367 15.8094 23.8027 15.0897 21.6996H12.0745V23.9889C13.6138 26.99 16.7489 28.8841 20.1773 28.8841V28.8841Z" fill="#34A853"/>
<path d="M15.0876 21.7003C14.7077 20.5966 14.7077 19.4013 15.0876 18.2975V16.0083H12.0757C10.7896 18.5196 10.7896 21.4783 12.0757 23.9896L15.0876 21.7003V21.7003Z" fill="#FBBC04"/>
<path d="M20.1773 14.6288C21.47 14.6092 22.7194 15.086 23.6557 15.9612L26.2444 13.4238C24.6052 11.9151 22.4296 11.0856 20.1773 11.1117C16.7489 11.1117 13.6138 13.0058 12.0745 16.0102L15.0864 18.2994C15.8027 16.1931 17.8118 14.6288 20.1773 14.6288V14.6288Z" fill="#EA4335"/>
</svg>
