<svg id="logo" xmlns="http://www.w3.org/2000/svg" viewBox="0 0 250 420"><defs><style>.cls-1{fill:#ffffff;}</style></defs><path class="cls-1" d="M236.05,65.92H181.18l.18,19.73c-17.77-18-39.66-24.31-62.18-24.31a115.69,115.69,0,0,0,0,231.38c26.63,0,49.42-11.8,61.16-26.81,0,.91-.08,11.82-.11,13-.22,7.46-1.3,19.41-8.33,31.62A60.6,60.6,0,0,1,87.53,331L60.24,378.5a114.77,114.77,0,0,0,59.46,16.64c30.36,0,68.22-12,95.07-49.21,22.33-30.92,21.28-60.13,21.28-88.41ZM119.18,237.84A60.82,60.82,0,1,1,180,177,60.88,60.88,0,0,1,119.18,237.84Z"/></svg>