<?xml version="1.0" encoding="UTF-8"?>
<!--Generator: Apple Native CoreSVG 175.5-->
<!DOCTYPE svg
PUBLIC "-//W3C//DTD SVG 1.1//EN"
       "http://www.w3.org/Graphics/SVG/1.1/DTD/svg11.dtd">
<svg version="1.1" xmlns="http://www.w3.org/2000/svg" xmlns:xlink="http://www.w3.org/1999/xlink" width="15.3984" height="16.4453">
 <g>
  <rect height="16.4453" opacity="0" width="15.3984" x="0" y="0"/>
  <path d="M0 10.9922C0 13.3047 1.44531 15.2422 3.38281 15.2422L4.75781 15.2422C3.35156 14.2188 2.77344 12.6719 2.77344 10.9141C2.78125 8.96094 3.53906 7.5625 4.21094 6.71875L3.09375 6.71875C1.35156 6.71875 0 8.59375 0 10.9922ZM3.85156 10.9297C3.85156 13.7812 6.07812 15.9844 9.71094 15.9844L10.7734 15.9844C11.7812 15.9844 12.5312 15.9141 12.9531 15.7969C13.5625 15.6484 14.1484 15.2734 14.1484 14.5391C14.1484 14.2344 14.0703 14.0156 13.9766 13.8516C13.9141 13.75 13.9297 13.6719 14.0234 13.6328C14.5078 13.4297 14.9062 12.9766 14.9062 12.3594C14.9062 12.0078 14.8047 11.6953 14.6328 11.4844C14.5469 11.3672 14.5547 11.2578 14.7031 11.1797C15.0469 10.9766 15.2969 10.5391 15.2969 10.0312C15.2969 9.66406 15.1797 9.28125 14.9766 9.09375C14.8516 8.98438 14.875 8.90625 15 8.78906C15.2422 8.58594 15.3984 8.23438 15.3984 7.78906C15.3984 7.03906 14.8125 6.42188 14.0391 6.42188L11.2891 6.42188C10.5938 6.42188 10.1328 6.0625 10.1328 5.48438C10.1328 4.44531 11.4375 2.52344 11.4375 1.14844C11.4375 0.421875 10.9688 0 10.3594 0C9.79688 0 9.52344 0.382812 9.22656 0.96875C8.0625 3.22656 6.51562 5.05469 5.33594 6.61719C4.33594 7.94531 3.85156 9.09375 3.85156 10.9297Z" fill="#000000" fill-opacity="0.85"/>
 </g>
</svg>
