<?xml version="1.0" encoding="UTF-8"?>
<!--Generator: Apple Native CoreSVG 175.5-->
<!DOCTYPE svg
PUBLIC "-//W3C//DTD SVG 1.1//EN"
       "http://www.w3.org/Graphics/SVG/1.1/DTD/svg11.dtd">
<svg version="1.1" xmlns="http://www.w3.org/2000/svg" xmlns:xlink="http://www.w3.org/1999/xlink" width="15.3906" height="16.0089">
 <g>
  <rect height="16.0089" opacity="0" width="15.3906" x="0" y="0"/>
  <path d="M15.3906 4.99272C15.3906 2.68022 13.9375 0.742725 12.0078 0.742725L10.6328 0.742725C12.0391 1.76616 12.6641 3.31304 12.6328 5.07085C12.6094 7.02397 11.8516 8.42241 11.1719 9.26616L12.2969 9.26616C14.0391 9.26616 15.3906 7.39116 15.3906 4.99272ZM11.5859 5.04741C11.6328 2.19585 9.32031 0.0395997 5.6875 0.00834966L4.63281 0.000537157C3.61719-0.00727534 2.86719 0.0708497 2.44531 0.188037C1.83594 0.336475 1.25 0.703662 1.25 1.44585C1.25 1.74272 1.32812 1.96929 1.42188 2.13335C1.48438 2.2271 1.47656 2.31304 1.375 2.3521C0.898438 2.54741 0.492188 3.00835 0.492188 3.61772C0.492188 3.9771 0.59375 4.28179 0.773438 4.50054C0.859375 4.61772 0.84375 4.71929 0.703125 4.80522C0.351562 5.00835 0.101562 5.44585 0.101562 5.95366C0.101562 6.32085 0.21875 6.70366 0.421875 6.89116C0.554688 7.00054 0.53125 7.07866 0.398438 7.19585C0.15625 7.39897 0 7.75054 0 8.19585C0 8.94585 0.585938 9.56304 1.35938 9.56304L4.10938 9.56304C4.80469 9.56304 5.26562 9.92241 5.26562 10.5005C5.26562 11.5396 3.96875 13.4537 3.96875 14.8287C3.96875 15.563 4.42969 15.9849 5.04688 15.9849C5.60156 15.9849 5.875 15.6021 6.17188 15.0162C7.33594 12.7583 8.88281 10.9302 10.0625 9.35991C11.0625 8.03179 11.5547 6.89116 11.5859 5.04741Z" fill="#000000" fill-opacity="0.85"/>
 </g>
</svg>
