<svg width="9" height="17" viewBox="0 0 9 17" fill="none" xmlns="http://www.w3.org/2000/svg">
<path d="M4.67529 0.634766C4.10824 0.634766 3.57926 0.738444 3.08838 0.945801C2.60173 1.15316 2.1722 1.44303 1.7998 1.81543C1.43164 2.18359 1.14176 2.61312 0.930176 3.104C0.722819 3.59066 0.619141 4.1154 0.619141 4.67822C0.619141 5.24528 0.724935 5.7806 0.936523 6.28418C1.15234 6.78353 1.45492 7.22363 1.84424 7.60449C2.23356 7.98112 2.69271 8.271 3.22168 8.47412V14.7393C3.22168 14.8197 3.23438 14.8916 3.25977 14.9551C3.28939 15.0186 3.33171 15.0799 3.38672 15.1392L4.44678 16.2056C4.50179 16.2606 4.57373 16.2923 4.6626 16.3008C4.7557 16.3092 4.8361 16.2796 4.90381 16.2119L6.91602 14.1997C6.98372 14.132 7.01546 14.0558 7.01123 13.9712C7.01123 13.8866 6.97949 13.8104 6.91602 13.7427L5.66553 12.5112L7.37939 10.8037C7.44287 10.7402 7.47249 10.6662 7.46826 10.5815C7.46826 10.4969 7.43441 10.4207 7.3667 10.353L5.67188 8.64551C6.65365 8.25618 7.4069 7.71452 7.93164 7.02051C8.46061 6.3265 8.7251 5.54574 8.7251 4.67822C8.7251 4.11963 8.6193 3.59701 8.40771 3.11035C8.20036 2.61947 7.91048 2.18994 7.53809 1.82178C7.16992 1.44938 6.7404 1.15951 6.24951 0.952148C5.75863 0.74056 5.23389 0.634766 4.67529 0.634766ZM4.67529 4.35449C4.37907 4.35449 4.12728 4.25081 3.91992 4.04346C3.7168 3.8361 3.61523 3.58643 3.61523 3.29443C3.61523 2.99821 3.7168 2.74854 3.91992 2.54541C4.12305 2.33805 4.37484 2.23438 4.67529 2.23438C4.96729 2.23438 5.21696 2.33805 5.42432 2.54541C5.63167 2.74854 5.73535 2.99821 5.73535 3.29443C5.73535 3.58643 5.63167 3.8361 5.42432 4.04346C5.21696 4.25081 4.96729 4.35449 4.67529 4.35449Z" fill="black"/>
</svg>
