<svg width="40" height="40" viewBox="0 0 40 40" fill="none" xmlns="http://www.w3.org/2000/svg">
<path d="M25.2716 29H28.9984L29 22.4043C29 19.1664 28.3035 16.6775 24.5262 16.6775C23.8175 16.6511 23.1149 16.8178 22.4932 17.1598C21.8716 17.5018 21.3542 18.0063 20.9962 18.6196H20.9461V16.9765H17.3683V28.9996H21.0952V23.0519C21.0952 21.4834 21.3921 19.9644 23.3332 19.9644C25.2467 19.9644 25.2716 21.7592 25.2716 23.1534V29Z" fill="white"/>
<path d="M11.9615 14.9682C12.3172 15.2062 12.7354 15.3331 13.1631 15.3331C13.4472 15.333 13.7284 15.2769 13.9908 15.168C14.2531 15.0591 14.4915 14.8994 14.6923 14.6982C14.8931 14.497 15.0524 14.2581 15.161 13.9953C15.2697 13.7324 15.3255 13.4507 15.3255 13.1661C15.3254 12.7376 15.1985 12.3188 14.9608 11.9625C14.7231 11.6063 14.3853 11.3287 13.99 11.1648C13.5948 11.0009 13.16 10.958 12.7404 11.0417C12.3209 11.1254 11.9356 11.3318 11.6332 11.6348C11.3308 11.9379 11.1249 12.324 11.0415 12.7442C10.9581 13.1645 11.001 13.6001 11.1648 13.996C11.3285 14.3918 11.6058 14.7302 11.9615 14.9682Z" fill="white"/>
<path d="M11.2958 29H15.0266V16.9765H11.2958V29Z" fill="white"/>
</svg>
