<svg width="120" height="120" viewBox="0 0 120 120" fill="none" xmlns="http://www.w3.org/2000/svg">
<path fill-rule="evenodd" clip-rule="evenodd" d="M60 0C26.8629 0 0 26.8629 0 60C0 93.1371 26.8629 120 60 120C93.1371 120 120 93.1371 120 60C120 26.8629 93.1371 0 60 0ZM62.5502 63.4698C55.7058 72.95 57.9689 86.2113 67.5731 93.0064C77.1221 99.8014 90.4797 97.5547 97.324 88.0197C104.113 78.5395 101.905 65.2782 92.3011 58.4832C82.7521 51.7429 69.3946 53.9897 62.5502 63.4698ZM78.2812 74.5392C78.9436 73.6076 80.2131 73.3884 81.1514 74.046C82.0898 74.7036 82.2554 76.0188 81.6482 76.8956C80.9858 77.8271 79.7163 78.0463 78.778 77.3887C77.8396 76.7312 77.6189 75.4708 78.2812 74.5392ZM87.6651 48.9488C82.8079 50.9764 77.1226 48.7296 75.0803 43.9073C74.6388 42.8662 73.4244 42.373 72.3757 42.8114C71.327 43.2497 70.8302 44.4553 71.2718 45.4965C73.314 50.3188 71.051 55.9631 66.1937 57.9906C61.2812 60.073 55.6511 57.7714 53.5537 52.9491C49.0276 42.2086 54.0504 29.7692 64.869 25.2209C75.6875 20.6727 88.2171 25.7689 92.7432 36.4547C94.8407 41.3318 92.5224 46.9213 87.6651 48.9488ZM38.4295 57.5524C41.5205 53.2781 40.4717 47.305 36.1664 44.2363C31.8059 41.1676 25.7895 42.1539 22.6984 46.483C15.9093 55.9632 18.1171 69.2245 27.7213 75.9648C37.3255 82.705 50.6279 80.5131 57.4723 70.9781C60.5633 66.7038 59.5145 60.7307 55.2092 57.662C50.9039 54.5933 44.8875 55.6344 41.7965 59.9087C41.1341 60.8403 39.8646 61.0595 38.9262 60.4019C37.9879 59.7443 37.7671 58.484 38.4295 57.5524Z" fill="white"/>
</svg>
