<svg width="25" height="26" viewBox="0 0 25 26" fill="none" xmlns="http://www.w3.org/2000/svg">
<rect x="6.70117" y="12.4097" width="11.7391" height="10.4348" rx="2.6087" transform="rotate(15 6.70117 12.4097)" fill="#FFD729"/>
<path d="M13.552 9.51914C12.1604 9.14625 10.7299 9.97212 10.357 11.3638L9.59747 14.1986L14.6371 15.5489L15.3967 12.7141C15.7696 11.3225 14.9437 9.89204 13.552 9.51914Z" stroke="#FFD729" stroke-width="1.30435"/>
<path d="M15.5706 1.56258C15.6544 2.00221 15.9983 2.34605 16.4379 2.42988L17.732 2.67626C17.8649 2.70156 17.9688 2.80551 17.9941 2.93842C18.0282 3.11723 17.9108 3.28976 17.732 3.32379L16.4377 3.57034C15.998 3.65417 15.6542 3.998 15.5704 4.43763L15.3239 5.73197C15.2986 5.86489 15.1946 5.96884 15.0617 5.99413C14.8829 6.02816 14.7104 5.91078 14.6763 5.73197L14.4297 4.43758C14.3459 3.99795 14.002 3.65411 13.5624 3.57029L12.268 3.32373C12.1351 3.29844 12.0312 3.19449 12.0059 3.06158C11.9718 2.88277 12.0892 2.71023 12.268 2.67621L13.5624 2.42966C14.002 2.34583 14.3459 2.002 14.4297 1.56237L14.6763 0.268025C14.7016 0.135114 14.8056 0.0311604 14.9385 0.00586951C15.1173 -0.0281551 15.2898 0.0892159 15.3239 0.268025L15.5706 1.56258Z" fill="#FFD729"/>
<path d="M22.1657 10.823C22.2635 11.3359 22.6646 11.7371 23.1775 11.8349L24.6873 12.1223C24.8424 12.1518 24.9636 12.2731 24.9932 12.4282C25.0328 12.6368 24.8959 12.8381 24.6873 12.8778L23.1773 13.1654C22.6644 13.2632 22.2632 13.6643 22.1654 14.1772L21.8779 15.6873C21.8483 15.8424 21.7271 15.9636 21.572 15.9932C21.3634 16.0328 21.1621 15.8959 21.1224 15.6873L20.8346 14.1772C20.7368 13.6643 20.3357 13.2631 19.8228 13.1653L18.3127 12.8777C18.1576 12.8482 18.0364 12.7269 18.0068 12.5718C17.9672 12.3632 18.1041 12.1619 18.3127 12.1222L19.8228 11.8346C20.3357 11.7368 20.7368 11.3357 20.8346 10.8228L21.1224 9.3127C21.1519 9.15763 21.2732 9.03635 21.4283 9.00685C21.6369 8.96715 21.8382 9.10409 21.8779 9.3127L22.1657 10.823Z" fill="#FFD729"/>
<path d="M5.35588 5.34388C5.48163 6.00332 5.99738 6.51907 6.65684 6.64481L8.59796 7.0144C8.79733 7.05233 8.95326 7.20826 8.99119 7.40763C9.04223 7.67584 8.86617 7.93465 8.59796 7.98568L6.65651 8.35551C5.99706 8.48125 5.4813 8.997 5.35556 9.65645L4.98581 11.598C4.94787 11.7973 4.79194 11.9533 4.59257 11.9912C4.32436 12.0422 4.06555 11.8662 4.01451 11.598L3.64452 9.65637C3.51878 8.99692 3.00302 8.48117 2.34357 8.35543L0.402041 7.9856C0.202672 7.94767 0.0467411 7.79174 0.00880434 7.59237C-0.0422331 7.32415 0.133825 7.06535 0.402041 7.01432L2.34357 6.64449C3.00302 6.51875 3.51878 6.00299 3.64452 5.34355L4.01451 3.40204C4.05245 3.20267 4.20838 3.04674 4.40775 3.0088C4.67597 2.95777 4.93477 3.13382 4.98581 3.40204L5.35588 5.34388Z" fill="#FFD729"/>
</svg>
