<svg width="24" height="24" viewBox="0 0 24 24" fill="none" xmlns="http://www.w3.org/2000/svg">
<path fill-rule="evenodd" clip-rule="evenodd" d="M9.86677 18.7999C12.2232 18.7999 14.1334 16.8897 14.1334 14.5333C14.1334 12.1769 12.2232 10.2666 9.86677 10.2666C7.51035 10.2666 5.6001 12.1769 5.6001 14.5333C5.6001 16.8897 7.51035 18.7999 9.86677 18.7999ZM9.86663 15.5998C10.4557 15.5998 10.9333 15.1222 10.9333 14.5331C10.9333 13.944 10.4557 13.4665 9.86663 13.4665C9.27753 13.4665 8.79997 13.944 8.79997 14.5331C8.79997 15.1222 9.27753 15.5998 9.86663 15.5998Z" fill="#717280"/>
<rect x="12.5334" y="8.66675" width="2.66667" height="2.66667" fill="#717280"/>
<rect x="15.2002" y="6" width="2.66667" height="2.66667" fill="#717280"/>
<path d="M17.8668 6L12.5334 11.3333L13.0668 13.4667L17.8668 8.66667V6Z" fill="#717280"/>
</svg>
