<svg version="1.1" xmlns="http://www.w3.org/2000/svg" xmlns:xlink="http://www.w3.org/1999/xlink" width="25.3906" height="23.938">
 <g>
  <rect height="23.938" opacity="0" width="25.3906" x="0" y="0"/>
  <path d="M0 22.1191C0 23.0103 0.512695 23.5229 1.3916 23.5229C1.70898 23.5229 2.01416 23.4253 2.41699 23.2056L7.54395 20.4346L7.54395 0.20752C7.32422 0.317383 7.08008 0.439453 6.86035 0.561523L1.07422 3.88184C0.341797 4.28467 0 4.87061 0 5.68848ZM9.21631 20.2026L15.3687 23.6572C15.5518 23.7549 15.7471 23.8403 15.9302 23.8892L15.9302 3.96729L9.8999 0.280762C9.69238 0.146484 9.44824 0.0488281 9.21631 0ZM17.5903 23.8525C17.7124 23.8159 17.8467 23.7671 17.9565 23.6938L24.3164 20.0806C25.0488 19.6777 25.3906 19.0918 25.3906 18.2739L25.3906 1.83105C25.3906 0.927734 24.8779 0.427246 23.999 0.427246C23.6816 0.427246 23.3765 0.524902 22.9736 0.744629L17.5903 3.73535Z" fill="#007aff"/>
 </g>
</svg>
