<svg width="99" height="77" viewBox="0 0 99 77" fill="none" xmlns="http://www.w3.org/2000/svg">
<path d="M89.3088 18.8067C90.1948 21.1648 89.9501 23.8407 88.7137 26.6781C87.4767 29.517 85.2525 32.5024 82.2081 35.4572C76.1199 41.3662 66.7858 47.1196 55.6469 51.3047C44.5079 55.4898 33.6946 57.3062 25.2217 56.868C20.9849 56.6489 17.3451 55.8667 14.5447 54.5448C11.7458 53.2235 9.79965 51.3707 8.91368 49.0126C8.02772 46.6545 8.27235 43.9786 9.50876 41.1412C10.7458 38.3023 12.97 35.3169 16.0144 32.3621C22.1025 26.4531 31.4366 20.6997 42.5756 16.5146C53.7146 12.3295 64.5279 10.5131 73.0008 10.9513C77.2376 11.1704 80.8774 11.9526 83.6778 13.2745C86.4767 14.5958 88.4228 16.4486 89.3088 18.8067Z" stroke="#E7E8EA" stroke-width="0.480958"/>
<path d="M94.6764 46.1196C94.2521 47.7031 92.6409 48.95 89.9472 49.8023C87.2663 50.6505 83.5833 51.0837 79.1511 51.0924C70.2904 51.1097 58.4918 49.4306 45.8596 46.0458C33.2274 42.661 22.1699 38.2159 14.5049 33.7705C10.6709 31.5469 7.69793 29.3302 5.80033 27.2552C3.89368 25.1703 3.12179 23.2848 3.54608 21.7013C3.97038 20.1178 5.58158 18.8709 8.27524 18.0187C10.9561 17.1705 14.6391 16.7372 19.0713 16.7286C27.9321 16.7112 39.7307 18.3904 52.3629 21.7752C64.9951 25.1599 76.0526 29.605 83.7175 34.0505C87.5516 36.2741 90.5245 38.4908 92.4221 40.5658C94.3288 42.6507 95.1007 44.5361 94.6764 46.1196Z" stroke="#E7E8EA" stroke-width="0.480958"/>
<path fill-rule="evenodd" clip-rule="evenodd" d="M46.8409 0.160319C46.8409 0.0717775 46.9127 0 47.0012 0H48.7872C48.7872 0 48.7872 2.75128e-06 48.7872 6.14515e-06C48.7872 1.16199e-05 48.7872 1.43616e-05 48.7872 1.04904e-05C48.7872 6.61919e-06 48.7872 9.25821e-06 48.7872 1.47329e-05V1.87988C48.7872 1.9224 48.7703 1.96317 48.7402 1.99324L45.8649 4.86857C45.8177 4.91577 45.8051 4.98711 45.8304 5.04886C45.9799 5.41318 46.0623 5.81212 46.0623 6.2303C46.0623 7.95014 44.6681 9.34435 42.9483 9.34435C41.2284 9.34435 39.8342 7.95014 39.8342 6.2303C39.8342 4.51046 41.2284 3.11625 42.9483 3.11625C43.5649 3.11625 44.1397 3.29548 44.6234 3.60469C44.7367 3.67714 44.8946 3.5998 44.8946 3.4653V2.10576C44.8946 2.01722 44.9664 1.94544 45.0549 1.94544H46.6806C46.7691 1.94544 46.8409 1.87366 46.8409 1.78512V0.160319ZM43.7268 6.23017C43.7268 6.66013 43.3782 7.00868 42.9482 7.00868C42.5183 7.00868 42.1697 6.66013 42.1697 6.23017C42.1697 5.80021 42.5183 5.45166 42.9482 5.45166C43.3782 5.45166 43.7268 5.80021 43.7268 6.23017Z" fill="#C6C8CC"/>
<path fill-rule="evenodd" clip-rule="evenodd" d="M3.10913 36.5638C3.06939 36.4847 2.97304 36.4527 2.89391 36.4924L1.29858 37.2935C1.29818 37.2937 1.29801 37.2942 1.29822 37.2946L1.29879 37.2957C1.29891 37.296 1.29868 37.2962 1.29843 37.2961C1.29818 37.2961 1.29796 37.2963 1.29808 37.2965L2.14129 38.9759C2.16037 39.0139 2.19377 39.0428 2.23413 39.0561L6.09362 40.3354C6.15691 40.3564 6.20021 40.4144 6.20534 40.4809C6.2356 40.8723 6.34087 41.2645 6.52793 41.6371C7.29965 43.174 9.17123 43.7944 10.7082 43.0227C12.2452 42.2509 12.8655 40.3794 12.0938 38.8424C11.3221 37.3054 9.45051 36.685 7.91353 37.4568C7.36225 37.7336 6.92889 38.1519 6.63539 38.6455C6.56664 38.7611 6.39077 38.7629 6.33041 38.6427L5.72175 37.4305C5.68202 37.3513 5.58567 37.3194 5.50654 37.3591L3.91097 38.1603C3.9107 38.1604 3.91059 38.1608 3.91072 38.161C3.91094 38.1615 3.91052 38.1619 3.91006 38.1618L3.90966 38.1617C3.90905 38.1615 3.90899 38.1606 3.90956 38.1603L3.90979 38.1602C3.91019 38.16 3.91036 38.1595 3.91015 38.1591L3.10913 36.5638ZM8.61516 40.59C8.8081 40.9743 9.27599 41.1294 9.66023 40.9364C10.0445 40.7435 10.1996 40.2756 10.0066 39.8914C9.8137 39.5071 9.34581 39.352 8.96157 39.545C8.57732 39.7379 8.42223 40.2058 8.61516 40.59Z" fill="#C6C8CC"/>
<path fill-rule="evenodd" clip-rule="evenodd" d="M64.6141 68.8055C64.6932 68.7657 64.7896 68.7976 64.8293 68.8768L65.6307 70.4723C65.6309 70.4725 65.6308 70.4728 65.6305 70.4729L65.6302 70.4731C65.63 70.4732 65.63 70.4736 65.6303 70.4737C65.6306 70.4738 65.6306 70.4742 65.6303 70.4743L63.9512 71.3177C63.9132 71.3368 63.8692 71.34 63.8288 71.3267L61.2791 70.4819C61.279 70.4819 61.279 70.4819 61.279 70.482C61.279 70.482 61.279 70.482 61.279 70.4819C61.279 70.4819 61.279 70.4819 61.279 70.4819L59.9687 70.0479C59.9054 70.0269 59.836 70.0476 59.7922 70.0979C59.534 70.3944 59.2149 70.6466 58.8418 70.8341C57.3049 71.606 55.4332 70.9859 54.6613 69.4491C53.8893 67.9122 54.5094 66.0406 56.0462 65.2686C57.5831 64.4966 59.4548 65.1167 60.2267 66.6536C60.5037 67.2049 60.6014 67.7993 60.5421 68.3705C60.5281 68.5043 60.6682 68.6108 60.7884 68.5504L62.0013 67.9411C62.0805 67.9014 62.1768 67.9333 62.2166 68.0124L63.0181 69.6082C63.0182 69.6083 63.0182 69.6083 63.0183 69.6084C63.0185 69.6084 63.0187 69.6082 63.0186 69.608L63.0184 69.6075C63.0182 69.6073 63.0183 69.607 63.0186 69.6069L64.6141 68.8055ZM57.7934 68.7476C57.4092 68.9406 56.9413 68.7856 56.7483 68.4014C56.5553 68.0171 56.7103 67.5492 57.0945 67.3562C57.4787 67.1632 57.9466 67.3183 58.1396 67.7025C58.3326 68.0867 58.1776 68.5546 57.7934 68.7476Z" fill="#C6C8CC"/>
<path fill-rule="evenodd" clip-rule="evenodd" d="M88.0968 23.5439C88.01 23.5263 87.954 23.4417 87.9716 23.3549L88.2952 21.7618C88.3128 21.675 88.3974 21.619 88.4842 21.6366L90.2337 21.9919C90.2341 21.992 90.2344 21.9924 90.2343 21.9929L90.2342 21.9934C90.2341 21.9935 90.2342 21.9936 90.2344 21.9937C90.2344 21.9937 90.2345 21.9937 90.2345 21.9938L92.5156 25.4377C92.5524 25.4933 92.6198 25.5199 92.6854 25.5074C93.0721 25.4334 93.4793 25.4321 93.889 25.5153C95.5744 25.8576 96.6632 27.5015 96.3209 29.1869C95.9785 30.8723 94.3347 31.9611 92.6493 31.6188C90.9639 31.2765 89.8751 29.6326 90.2174 27.9472C90.34 27.3435 90.6296 26.8163 91.0283 26.4041C91.1218 26.3074 91.0774 26.1374 90.9456 26.1106L89.6168 25.8407C89.53 25.8231 89.474 25.7384 89.4916 25.6517L89.8471 23.9015C89.8471 23.9015 89.8471 23.9015 89.8472 23.9015C89.8473 23.9015 89.8473 23.9014 89.8473 23.9013L89.8461 23.8995C89.8459 23.8993 89.8457 23.8992 89.8454 23.8991L88.0968 23.5439ZM93.4241 27.8033C93.8455 27.8889 94.1177 28.2998 94.0321 28.7212C93.9465 29.1426 93.5355 29.4148 93.1142 29.3292C92.6928 29.2436 92.4206 28.8326 92.5062 28.4113C92.5918 27.9899 93.0027 27.7177 93.4241 27.8033Z" fill="#C6C8CC"/>
<rect x="58.3081" y="18.8193" width="36.6625" height="36.6625" rx="18.3312" transform="rotate(15 58.3081 18.8193)" fill="#FFD729"/>
<path d="M65.368 39.6888C65.2906 39.9777 65.3251 40.2524 65.4716 40.5129C65.6239 40.7699 65.8445 40.9372 66.1334 41.0146L69.9513 42.0376L68.9283 45.8555C68.8521 46.1398 68.8879 46.4099 69.0356 46.6657C69.1821 46.9262 69.3998 47.0951 69.6887 47.1725C69.9776 47.2499 70.2506 47.2125 70.5077 47.0602C70.7681 46.9137 70.9364 46.6983 71.0126 46.414L72.0356 42.5961L75.8535 43.6191C76.1378 43.6953 76.4079 43.6595 76.6638 43.5118C76.9254 43.3607 77.095 43.1407 77.1724 42.8518C77.2498 42.5629 77.2124 42.2899 77.06 42.0328C76.9136 41.7724 76.6981 41.6041 76.4138 41.5279L72.596 40.5049L73.6171 36.6939C73.6945 36.405 73.6571 36.132 73.5048 35.8749C73.3583 35.6145 73.1406 35.4455 72.8517 35.3681C72.5627 35.2907 72.2897 35.3281 72.0327 35.4804C71.7768 35.6282 71.6102 35.8465 71.5328 36.1354L70.5116 39.9464L66.6938 38.9234C66.4048 38.846 66.1295 38.8828 65.8679 39.0339C65.612 39.1816 65.4454 39.3999 65.368 39.6888Z" fill="#4F4D2B"/>
<rect x="19.72" y="14.7222" width="23.1914" height="23.1914" rx="11.5957" transform="rotate(-15 19.72 14.7222)" fill="#FC511F"/>
<path d="M30.1879 23.922C30.2369 24.1048 30.3427 24.2443 30.5053 24.3407C30.67 24.4333 30.8438 24.4552 31.0265 24.4062L33.4416 23.7591L34.0887 26.1741C34.1369 26.354 34.2419 26.4906 34.4038 26.5841C34.5664 26.6804 34.7391 26.7041 34.9218 26.6551C35.1046 26.6062 35.2423 26.4993 35.335 26.3346C35.4313 26.1719 35.4554 26.0007 35.4072 25.8208L34.7601 23.4058L37.1751 22.7587C37.355 22.7105 37.4916 22.6055 37.5851 22.4436C37.6806 22.2781 37.7039 22.104 37.655 21.9212C37.606 21.7385 37.4991 21.6007 37.3344 21.5081C37.1718 21.4117 37.0005 21.3877 36.8207 21.4359L34.4056 22.083L33.7597 19.6723C33.7107 19.4895 33.6038 19.3518 33.4391 19.2591C33.2765 19.1628 33.1038 19.1391 32.921 19.1881C32.7383 19.2371 32.6006 19.3439 32.5079 19.5087C32.4145 19.6705 32.3922 19.8428 32.4412 20.0256L33.0871 22.4363L30.6721 23.0834C30.4893 23.1323 30.3502 23.2396 30.2546 23.4051C30.1612 23.5669 30.1389 23.7392 30.1879 23.922Z" fill="#720808"/>
<rect x="16" y="53.6401" width="26" height="26" rx="13" transform="rotate(-29.0885 16 53.6401)" fill="#C5CBEA"/>
<path d="M29.8936 60.7868C29.9967 60.9721 30.1498 61.095 30.3529 61.1554C30.5574 61.2112 30.7523 61.1875 30.9376 61.0844L33.3871 59.7217L34.7498 62.1712C34.8513 62.3536 35.0028 62.4735 35.2043 62.531C35.4074 62.5913 35.6017 62.57 35.787 62.4668C35.9724 62.3637 36.093 62.2099 36.1488 62.0055C36.2092 61.8024 36.1886 61.6096 36.0871 61.4272L34.7244 58.9777L37.1739 57.615C37.3563 57.5135 37.4762 57.362 37.5337 57.1605C37.5924 56.9545 37.5702 56.7587 37.4671 56.5734C37.364 56.388 37.2102 56.2674 37.0058 56.2116C36.8026 56.1512 36.6099 56.1718 36.4274 56.2733L33.978 57.636L32.6177 55.1909C32.5146 55.0056 32.3608 54.885 32.1564 54.8292C31.9532 54.7688 31.759 54.7902 31.5736 54.8933C31.3883 54.9964 31.2677 55.1502 31.2119 55.3546C31.1544 55.5561 31.1773 55.7495 31.2804 55.9349L32.6407 58.38L30.1912 59.7427C30.0058 59.8458 29.8838 60.0004 29.825 60.2065C29.7676 60.408 29.7904 60.6014 29.8936 60.7868Z" fill="#B0FF00"/>
</svg>
