<svg version="1.1" xmlns="http://www.w3.org/2000/svg" xmlns:xlink="http://www.w3.org/1999/xlink" width="14.5972" height="13.4985">
 <g>
  <rect height="13.4985" opacity="0" width="14.5972" x="0" y="0"/>
  <path d="M2.2998 13.4985L12.3047 13.4985C13.8354 13.4985 14.5972 12.7368 14.5972 11.228L14.5972 2.28516C14.5972 0.776367 13.8354 0.0146484 12.3047 0.0146484L2.2998 0.0146484C0.769043 0.0146484 0 0.769043 0 2.28516L0 11.228C0 12.7441 0.769043 13.4985 2.2998 13.4985ZM2.18994 12.3193C1.53809 12.3193 1.1792 11.9751 1.1792 11.2939L1.1792 4.38721C1.1792 3.71338 1.53809 3.36182 2.18994 3.36182L12.3999 3.36182C13.0518 3.36182 13.418 3.71338 13.418 4.38721L13.418 11.2939C13.418 11.9751 13.0518 12.3193 12.3999 12.3193ZM3.46436 6.08643L11.1548 6.08643C11.4111 6.08643 11.6089 5.88135 11.6089 5.625C11.6089 5.37598 11.4111 5.18555 11.1548 5.18555L3.46436 5.18555C3.19336 5.18555 3.00293 5.37598 3.00293 5.625C3.00293 5.88135 3.19336 6.08643 3.46436 6.08643ZM3.46436 8.29102L11.1548 8.29102C11.4111 8.29102 11.6089 8.10059 11.6089 7.85156C11.6089 7.58789 11.4111 7.39014 11.1548 7.39014L3.46436 7.39014C3.19336 7.39014 3.00293 7.58789 3.00293 7.85156C3.00293 8.10059 3.19336 8.29102 3.46436 8.29102ZM3.46436 10.4956L8.34961 10.4956C8.60596 10.4956 8.80371 10.3052 8.80371 10.0562C8.80371 9.7998 8.60596 9.59473 8.34961 9.59473L3.46436 9.59473C3.19336 9.59473 3.00293 9.7998 3.00293 10.0562C3.00293 10.3052 3.19336 10.4956 3.46436 10.4956Z" fill="#000000" fill-opacity="0.85"/>
 </g>
</svg>
