<svg width="13" height="14" viewBox="0 0 13 14" fill="none" xmlns="http://www.w3.org/2000/svg">
<path fill-rule="evenodd" clip-rule="evenodd" d="M4.73881 13.6088C7.17206 13.6088 9.1446 11.6363 9.1446 9.20304C9.1446 6.76978 7.17206 4.79724 4.73881 4.79724C2.30555 4.79724 0.333008 6.76978 0.333008 9.20304C0.333008 11.6363 2.30555 13.6088 4.73881 13.6088ZM4.73913 10.3044C5.34744 10.3044 5.84058 9.81127 5.84058 9.20295C5.84058 8.59464 5.34744 8.1015 4.73913 8.1015C4.13082 8.1015 3.63768 8.59464 3.63768 9.20295C3.63768 9.81127 4.13082 10.3044 4.73913 10.3044Z" fill="#798088"/>
<rect x="7.49316" y="3.14502" width="2.75362" height="2.75362" fill="#798088"/>
<rect x="10.2461" y="0.391357" width="2.75362" height="2.75362" fill="#798088"/>
<path d="M13.0004 0.391357L7.49316 5.8986L8.04389 8.1015L13.0004 3.14498V0.391357Z" fill="#798088"/>
</svg>
