<svg width="10" height="10" viewBox="0 0 10 10" fill="none" xmlns="http://www.w3.org/2000/svg">
<path d="M0.687988 4.05713C1.05713 4.05713 1.25488 3.85059 1.25488 3.48584V2.57178C1.25488 2.19385 1.44385 2.02246 1.79541 2.02246H2.72705C3.09619 2.02246 3.29834 1.82031 3.29834 1.45557C3.29834 1.09082 3.09619 0.888672 2.72705 0.888672H1.67236C0.67041 0.888672 0.121094 1.43359 0.121094 2.43115V3.48584C0.121094 3.85498 0.323242 4.05713 0.687988 4.05713ZM8.43994 4.05713C8.80908 4.05713 9.00684 3.85498 9.00684 3.48584V2.43115C9.00684 1.43359 8.46191 0.888672 7.45557 0.888672H6.40527C6.03174 0.888672 5.82959 1.09082 5.82959 1.45557C5.82959 1.82031 6.03613 2.02246 6.40527 2.02246H7.33252C7.68408 2.02246 7.87305 2.19385 7.87305 2.57178V3.48584C7.87305 3.85498 8.0752 4.05713 8.43994 4.05713ZM2.66553 5.14258H4.18604C4.2959 5.14258 4.375 5.06348 4.375 4.95361V3.43311C4.375 3.32324 4.2959 3.24414 4.18604 3.24414H2.66553C2.55566 3.24414 2.47217 3.32324 2.47217 3.43311V4.95361C2.47217 5.06348 2.55566 5.14258 2.66553 5.14258ZM4.94189 5.14258H6.4624C6.57227 5.14258 6.65576 5.06348 6.65576 4.95361V3.43311C6.65576 3.32324 6.57227 3.24414 6.4624 3.24414H4.94189C4.83643 3.24414 4.75293 3.32324 4.75293 3.43311V4.95361C4.75293 5.06348 4.83643 5.14258 4.94189 5.14258ZM2.85449 4.76025V3.62207H3.99268V4.76025H2.85449ZM5.13525 4.76025V3.62207H6.27344V4.76025H5.13525ZM3.18848 4.43066H3.66309V3.95605H3.18848V4.43066ZM5.46484 4.43066H5.93945V3.95605H5.46484V4.43066ZM2.66553 7.42334H4.18604C4.2959 7.42334 4.375 7.34424 4.375 7.22998V5.71387C4.375 5.604 4.2959 5.5249 4.18604 5.5249H2.66553C2.55566 5.5249 2.47217 5.604 2.47217 5.71387V7.22998C2.47217 7.34424 2.55566 7.42334 2.66553 7.42334ZM4.80566 6.05225H5.28467V5.57764H4.80566V6.05225ZM6.12402 6.05225H6.59863V5.57764H6.12402V6.05225ZM2.85449 7.04102V5.90283H3.99268V7.04102H2.85449ZM3.18848 6.70703H3.66309V6.23242H3.18848V6.70703ZM5.46484 6.71143H5.93945V6.23682H5.46484V6.71143ZM1.67236 9.77881H2.72705C3.09619 9.77881 3.29834 9.57666 3.29834 9.20752C3.29834 8.84277 3.09619 8.64062 2.72705 8.64062H1.79541C1.44385 8.64062 1.25488 8.46924 1.25488 8.0957V7.18164C1.25488 6.80811 1.05273 6.61035 0.687988 6.61035C0.318848 6.61035 0.121094 6.80811 0.121094 7.18164V8.23633C0.121094 9.23389 0.67041 9.77881 1.67236 9.77881ZM6.40527 9.77881H7.45557C8.46191 9.77881 9.00684 9.22949 9.00684 8.23633V7.18164C9.00684 6.80811 8.80908 6.61035 8.43994 6.61035C8.0752 6.61035 7.87305 6.8125 7.87305 7.18164V8.0957C7.87305 8.46924 7.68408 8.64062 7.33252 8.64062H6.40527C6.03174 8.64062 5.82959 8.84277 5.82959 9.20752C5.82959 9.57666 6.03174 9.77881 6.40527 9.77881ZM4.80566 7.36621H5.28467V6.896H4.80566V7.36621ZM6.12402 7.36621H6.59863V6.896H6.12402V7.36621Z" fill="black"/>
</svg>
