<svg width="10" height="11" viewBox="0 0 10 11" fill="none" xmlns="http://www.w3.org/2000/svg">
<path d="M2.81294 11H7.18706C7.63401 11 7.97312 10.8951 8.20441 10.6852C8.43569 10.4753 8.56228 10.159 8.58415 9.73611L8.87014 3.34722H9.29676C9.49992 3.34722 9.66714 3.28549 9.79841 3.16204C9.9328 3.03858 10 2.87654 10 2.67593C10 2.4784 9.9328 2.31944 9.79841 2.19907C9.66714 2.07562 9.49992 2.01389 9.29676 2.01389H0.703235C0.500078 2.01389 0.331302 2.07562 0.196906 2.19907C0.0656353 2.31944 0 2.4784 0 2.67593C0 2.87654 0.0656353 3.03858 0.196906 3.16204C0.331302 3.28549 0.500078 3.34722 0.703235 3.34722H1.12986L1.41585 9.73611C1.4346 10.159 1.55962 10.4753 1.7909 10.6852C2.02532 10.8951 2.36599 11 2.81294 11ZM3.42241 9.19444C3.29114 9.19444 3.18175 9.15432 3.09423 9.07407C3.00985 8.99383 2.96765 8.88735 2.96765 8.75463L2.827 4.33796C2.82388 4.20216 2.86138 4.09414 2.93952 4.01389C3.02078 3.93056 3.13018 3.88889 3.2677 3.88889C3.40834 3.88889 3.52086 3.93056 3.60525 4.01389C3.69276 4.09414 3.73808 4.20062 3.74121 4.33333L3.87717 8.74074C3.88029 8.87654 3.84123 8.98611 3.75996 9.06944C3.6787 9.15278 3.56618 9.19444 3.42241 9.19444ZM5.00234 9.19444C4.86482 9.19444 4.75387 9.15586 4.66948 9.0787C4.58822 8.99846 4.54759 8.89198 4.54759 8.75926V4.3287C4.54759 4.19599 4.58822 4.08951 4.66948 4.00926C4.75387 3.92901 4.86482 3.88889 5.00234 3.88889C5.13674 3.88889 5.24457 3.92901 5.32583 4.00926C5.41022 4.08951 5.45241 4.19599 5.45241 4.3287V8.75926C5.45241 8.89198 5.41022 8.99846 5.32583 9.0787C5.24457 9.15586 5.13674 9.19444 5.00234 9.19444ZM6.57759 9.19444C6.43694 9.19444 6.32443 9.15278 6.24004 9.06944C6.15877 8.98611 6.11971 8.87654 6.12283 8.74074L6.25879 4.33333C6.26192 4.20062 6.30567 4.09414 6.39006 4.01389C6.47757 3.93056 6.59165 3.88889 6.7323 3.88889C6.86982 3.88889 6.97765 3.93056 7.05579 4.01389C7.13705 4.09414 7.17612 4.20216 7.173 4.33796L7.03704 8.75463C7.03391 8.88735 6.98859 8.99383 6.90108 9.07407C6.81669 9.15432 6.70886 9.19444 6.57759 9.19444ZM2.49883 2.25H3.99906V1.40741C3.99906 1.35494 4.01625 1.31481 4.05063 1.28704C4.08814 1.25926 4.14283 1.24537 4.21472 1.24537H5.78528C5.85717 1.24537 5.9103 1.25926 5.94468 1.28704C5.98218 1.31481 6.00094 1.35494 6.00094 1.40741V2.25H7.50117V1.37963C7.50117 0.929012 7.36365 0.58642 7.08861 0.351852C6.81669 0.117284 6.41819 0 5.89311 0H4.10689C3.58181 0 3.18175 0.117284 2.9067 0.351852C2.63479 0.58642 2.49883 0.929012 2.49883 1.37963V2.25Z" fill="#FC511F"/>
</svg>
