<svg width="16" height="17" viewBox="0 0 16 17" fill="none" xmlns="http://www.w3.org/2000/svg">
<path d="M8.04541 16.4536C12.2935 16.4536 15.7798 12.96 15.7798 8.71191C15.7798 4.47119 12.2861 0.977539 8.04541 0.977539C3.79736 0.977539 0.311035 4.47119 0.311035 8.71191C0.311035 12.96 3.80469 16.4536 8.04541 16.4536ZM5.73828 11.8613C5.26953 11.8613 4.90332 11.4878 4.90332 11.0117C4.90332 10.7993 4.99121 10.5869 5.15234 10.4331L6.85889 8.72656L5.15234 7.02002C4.99121 6.85889 4.90332 6.65381 4.90332 6.44141C4.90332 5.95801 5.26953 5.59912 5.73828 5.59912C5.99463 5.59912 6.18506 5.67969 6.35352 5.84082L8.04541 7.53271L9.75195 5.84082C9.92773 5.66504 10.1182 5.5918 10.3672 5.5918C10.8359 5.5918 11.2021 5.95801 11.2021 6.42676C11.2021 6.64648 11.1216 6.85156 10.9531 7.0127L9.24658 8.72656L10.9458 10.4258C11.1143 10.5869 11.2021 10.792 11.2021 11.0117C11.2021 11.4878 10.8359 11.8613 10.3599 11.8613C10.1108 11.8613 9.89844 11.7734 9.7373 11.6123L8.04541 9.92041L6.36084 11.6123C6.19971 11.7734 5.99463 11.8613 5.73828 11.8613Z" fill="#A6A8AC"/>
</svg>
