<svg width="20" height="20" viewBox="0 0 16 16" fill="none" xmlns="http://www.w3.org/2000/svg">
<path fill-rule="evenodd" clip-rule="evenodd" d="M5.56521 16.0002C8.63879 16.0002 11.1304 13.6124 11.1304 10.6668C11.1304 7.72131 8.63879 5.3335 5.56521 5.3335C2.49163 5.3335 0 7.72131 0 10.6668C0 13.6124 2.49163 16.0002 5.56521 16.0002ZM5.56498 12C6.33338 12 6.95628 11.403 6.95628 10.6666C6.95628 9.93026 6.33338 9.33331 5.56498 9.33331C4.79659 9.33331 4.17368 9.93026 4.17368 10.6666C4.17368 11.403 4.79659 12 5.56498 12Z" fill="#b0ff00"/>
<rect x="9.04395" y="3.3335" width="3.47826" height="3.33334" fill="#b0ff00"/>
<rect x="12.5215" width="3.47826" height="3.33334" fill="#b0ff00"/>
<path d="M16.0005 0L9.04395 6.66668L9.7396 9.33335L16.0005 3.33334V0Z" fill="#b0ff00"/>
</svg>
