<svg width="195" height="261" viewBox="0 0 195 261" fill="none" xmlns="http://www.w3.org/2000/svg">
<path d="M82.3722 203.986L80.6466 204.554C69.5366 208.244 53.1079 213.944 38.3576 220.732C37.5775 221.11 37.0575 222.151 37.0575 222.151C36.7738 222.789 36.4429 223.57 36.0647 224.445L36.0174 224.563C34.3627 228.324 32.0934 233.976 31.1006 236.294L30.3442 238.115C30.226 238.399 30.2969 238.73 30.5333 238.943C30.6751 239.085 30.8406 239.156 31.0297 239.156C31.1242 239.156 31.2424 239.132 31.3606 239.085L33.1335 238.234C37.1757 236.318 42.2815 233.409 47.6238 230.854L47.8129 230.76C58.0011 225.935 69.4893 220.471 76.4153 217.16C76.4153 217.16 77.5263 216.569 78.0937 215.457L83.2705 205.051C83.4123 204.791 83.365 204.459 83.1759 204.223C82.9632 203.986 82.6559 203.892 82.3722 203.986Z" fill="white"/>
<path d="M40.9578 187.879C41.6906 186.46 45.0472 179.98 45.8036 178.537L45.9455 178.277C68.4492 135.823 95.8697 95.7571 127.427 59.2393L128.301 58.2223C128.562 57.9148 128.609 57.4418 128.42 57.087C128.207 56.7086 127.805 56.5194 127.403 56.5667L126.08 56.7559C105.372 59.6177 84.4051 63.5675 63.7451 68.5107C61.6886 69.0783 60.3649 70.4264 60.0812 70.7339C44.6217 89.253 29.9896 108.742 16.563 128.727C15.9011 129.744 15.6647 131.069 15.8302 132.157C15.972 133.221 19.2105 158.173 24.1273 177.331C11.9299 212.43 1.03258 258.739 1.03258 258.739C0.938031 259.046 1.00895 259.354 1.17442 259.614C1.36352 259.874 1.64718 260.016 1.97812 260.016H8.9278C9.37692 260.016 9.75514 259.756 9.92061 259.354L10.3934 258.053C17.4849 238.706 25.5692 219.596 34.5045 200.959C36.561 196.63 40.9578 187.879 40.9578 187.879Z" fill="white"/>
<path d="M137.615 66.8319L137.591 65.5074C137.568 65.0816 137.308 64.7269 136.93 64.585C136.551 64.4431 136.102 64.5613 135.819 64.8688L134.944 65.8621C98.139 108.458 67.1964 155.714 42.9907 206.352L42.4234 207.534C42.2342 207.913 42.3052 208.362 42.5888 208.669C42.7779 208.859 43.038 208.977 43.298 208.977C43.4162 208.977 43.558 208.953 43.6998 208.906L44.9054 208.409C65.589 199.847 86.698 192.421 107.665 186.342C108.918 185.988 109.982 185.089 110.573 183.93C119.815 166.002 141.161 131.306 141.161 131.306C141.704 130.525 141.563 129.366 141.563 129.366C141.563 129.366 137.851 87.8343 137.615 66.8319Z" fill="white"/>
<path d="M185.199 6.9463C179.975 2.40523 172.387 0.276604 160.615 0.0164387C149.931 -0.220075 137.237 2.09776 122.841 6.82805C120.69 7.58489 118.964 8.79111 117.428 10.2812C102.796 24.0226 88.5654 38.6156 75.1152 53.6578L74.0751 54.7931C73.7915 55.1242 73.7442 55.5973 73.9569 55.952C74.1697 56.3305 74.6188 56.5197 75.0443 56.4251L76.5571 56.0939C98.2335 51.4583 120.123 47.9106 141.61 45.5691C143.028 45.4035 144.494 45.8765 145.534 46.8462C146.598 47.8159 147.189 49.2114 147.165 50.6541C146.81 71.9877 147.59 93.4159 149.481 114.347L149.6 115.719C149.647 116.145 149.931 116.476 150.356 116.594C150.427 116.618 150.498 116.618 150.592 116.642C150.9 116.642 151.231 116.5 151.443 116.216L152.224 115.104C164.326 97.8387 177.493 81.0462 191.345 65.1524C192.905 63.3786 193.307 62.267 193.591 60.6587C197.94 32.7973 191.227 12.1733 185.199 6.9463Z" fill="white"/>
</svg>
