<svg width="13" height="13" viewBox="0 0 13 13" fill="none" xmlns="http://www.w3.org/2000/svg">
<path d="M2.25684 5.97949H4.61182C5.16618 5.97949 5.57666 5.84619 5.84326 5.57959C6.10986 5.30876 6.24316 4.89193 6.24316 4.3291V2.00586C6.24316 1.44303 6.10986 1.02832 5.84326 0.761719C5.57666 0.490885 5.16618 0.355469 4.61182 0.355469H2.25684C1.70247 0.355469 1.28988 0.490885 1.01904 0.761719C0.752441 1.02832 0.619141 1.44303 0.619141 2.00586V4.3291C0.619141 4.89193 0.752441 5.30876 1.01904 5.57959C1.28988 5.84619 1.70247 5.97949 2.25684 5.97949ZM2.16797 4.78613C2.04525 4.78613 1.95426 4.75651 1.89502 4.69727C1.84001 4.63802 1.8125 4.54704 1.8125 4.42432V1.91064C1.8125 1.78792 1.84001 1.69694 1.89502 1.6377C1.95426 1.57845 2.04525 1.54883 2.16797 1.54883H4.69434C4.81706 1.54883 4.90804 1.57845 4.96729 1.6377C5.02653 1.69694 5.05615 1.78792 5.05615 1.91064V4.42432C5.05615 4.54704 5.02653 4.63802 4.96729 4.69727C4.90804 4.75651 4.81706 4.78613 4.69434 4.78613H2.16797ZM2.82178 3.9165H4.03418C4.13151 3.9165 4.18018 3.86149 4.18018 3.75146V2.57715C4.18018 2.47135 4.13151 2.41846 4.03418 2.41846H2.82178C2.72868 2.41846 2.68213 2.47135 2.68213 2.57715V3.75146C2.68213 3.86149 2.72868 3.9165 2.82178 3.9165ZM8.76953 5.97949H11.1245C11.6789 5.97949 12.0894 5.84619 12.356 5.57959C12.6226 5.30876 12.7559 4.89193 12.7559 4.3291V2.00586C12.7559 1.44303 12.6226 1.02832 12.356 0.761719C12.0894 0.490885 11.6789 0.355469 11.1245 0.355469H8.76953C8.21517 0.355469 7.80257 0.490885 7.53174 0.761719C7.26514 1.02832 7.13184 1.44303 7.13184 2.00586V4.3291C7.13184 4.89193 7.26514 5.30876 7.53174 5.57959C7.80257 5.84619 8.21517 5.97949 8.76953 5.97949ZM8.68066 4.78613C8.55794 4.78613 8.46696 4.75651 8.40771 4.69727C8.3527 4.63802 8.3252 4.54704 8.3252 4.42432V1.91064C8.3252 1.78792 8.3527 1.69694 8.40771 1.6377C8.46696 1.57845 8.55794 1.54883 8.68066 1.54883H11.207C11.334 1.54883 11.425 1.57845 11.48 1.6377C11.535 1.69694 11.5625 1.78792 11.5625 1.91064V4.42432C11.5625 4.54704 11.535 4.63802 11.48 4.69727C11.425 4.75651 11.334 4.78613 11.207 4.78613H8.68066ZM9.35352 3.9165H10.5659C10.6675 3.9165 10.7183 3.86149 10.7183 3.75146V2.57715C10.7183 2.47135 10.6675 2.41846 10.5659 2.41846H9.35352C9.26465 2.41846 9.22021 2.47135 9.22021 2.57715V3.75146C9.22021 3.86149 9.26465 3.9165 9.35352 3.9165ZM2.25684 12.4922H4.61182C5.16618 12.4922 5.57666 12.3568 5.84326 12.0859C6.10986 11.8193 6.24316 11.4046 6.24316 10.8418V8.51221C6.24316 7.95361 6.10986 7.54102 5.84326 7.27441C5.57666 7.00358 5.16618 6.86816 4.61182 6.86816H2.25684C1.70247 6.86816 1.28988 7.00358 1.01904 7.27441C0.752441 7.54102 0.619141 7.95361 0.619141 8.51221V10.8418C0.619141 11.4046 0.752441 11.8193 1.01904 12.0859C1.28988 12.3568 1.70247 12.4922 2.25684 12.4922ZM2.16797 11.2988C2.04525 11.2988 1.95426 11.2692 1.89502 11.21C1.84001 11.1507 1.8125 11.0597 1.8125 10.937V8.42334C1.8125 8.29639 1.84001 8.2054 1.89502 8.15039C1.95426 8.09115 2.04525 8.06152 2.16797 8.06152H4.69434C4.81706 8.06152 4.90804 8.09115 4.96729 8.15039C5.02653 8.2054 5.05615 8.29639 5.05615 8.42334V10.937C5.05615 11.0597 5.02653 11.1507 4.96729 11.21C4.90804 11.2692 4.81706 11.2988 4.69434 11.2988H2.16797ZM2.82178 10.4292H4.03418C4.13151 10.4292 4.18018 10.3742 4.18018 10.2642V9.08984C4.18018 8.98405 4.13151 8.93115 4.03418 8.93115H2.82178C2.72868 8.93115 2.68213 8.98405 2.68213 9.08984V10.2642C2.68213 10.3742 2.72868 10.4292 2.82178 10.4292ZM7.60156 8.65186H8.82031C8.91764 8.65186 8.96631 8.59684 8.96631 8.48682V7.3125C8.96631 7.20671 8.91764 7.15381 8.82031 7.15381H7.60156C7.50846 7.15381 7.46191 7.20671 7.46191 7.3125V8.48682C7.46191 8.59684 7.50846 8.65186 7.60156 8.65186ZM11.0483 8.65186H12.2607C12.3581 8.65186 12.4067 8.59684 12.4067 8.48682V7.3125C12.4067 7.20671 12.3581 7.15381 12.2607 7.15381H11.0483C10.9552 7.15381 10.9087 7.20671 10.9087 7.3125V8.48682C10.9087 8.59684 10.9552 8.65186 11.0483 8.65186ZM9.34082 10.3784H10.5532C10.6548 10.3784 10.7056 10.3213 10.7056 10.207V9.03271C10.7056 8.92692 10.6548 8.87402 10.5532 8.87402H9.34082C9.24772 8.87402 9.20117 8.92692 9.20117 9.03271V10.207C9.20117 10.3213 9.24772 10.3784 9.34082 10.3784ZM7.60156 12.0986H8.82031C8.91764 12.0986 8.96631 12.0436 8.96631 11.9336V10.7529C8.96631 10.6471 8.91764 10.5942 8.82031 10.5942H7.60156C7.50846 10.5942 7.46191 10.6471 7.46191 10.7529V11.9336C7.46191 12.0436 7.50846 12.0986 7.60156 12.0986ZM11.0483 12.0986H12.2607C12.3581 12.0986 12.4067 12.0436 12.4067 11.9336V10.7529C12.4067 10.6471 12.3581 10.5942 12.2607 10.5942H11.0483C10.9552 10.5942 10.9087 10.6471 10.9087 10.7529V11.9336C10.9087 12.0436 10.9552 12.0986 11.0483 12.0986Z" fill="black"/>
</svg>
