<svg width="120" height="120" viewBox="0 0 120 120" fill="none" xmlns="http://www.w3.org/2000/svg">
<path fill-rule="evenodd" clip-rule="evenodd" d="M60 120C93.1367 120 120 93.1367 120 60C120 26.8633 93.1367 0 60 0C26.8633 0 0 26.8633 0 60C0 93.1367 26.8633 120 60 120ZM59.3594 76.957C57.6934 76.2275 56.0977 75.1084 54.5742 73.5977L41.7031 60.7266C41.2988 60.3096 41.0977 59.8154 41.0977 59.2422C41.0977 58.6562 41.2988 58.1611 41.7031 57.7578C41.9199 57.54 42.1602 57.3799 42.4199 57.2754C42.6582 57.1807 42.9141 57.1328 43.1875 57.1328C43.7734 57.1328 44.2676 57.3408 44.6719 57.7578L52.875 65.9609C52.9395 65.6484 53.0117 65.3291 53.0898 65.0039C53.1816 64.665 53.291 64.333 53.4219 64.0078L41.6055 52.2109C41.2012 51.8076 41 51.3193 41 50.7461C41 50.1602 41.2012 49.6592 41.6055 49.2422C42.0098 48.8389 42.498 48.6367 43.0703 48.6367C43.6562 48.6367 44.1582 48.8389 44.5742 49.2422L55.4336 60.1211C55.6035 59.8604 55.7793 59.6064 55.9609 59.3594C56.1562 59.1123 56.3516 58.8711 56.5469 58.6367L44.6914 46.7812C44.2871 46.3643 44.0859 45.8701 44.0859 45.2969C44.0859 44.9473 44.1582 44.6289 44.3027 44.3438C44.4004 44.1523 44.5293 43.9746 44.6914 43.8125C45.0957 43.3955 45.5898 43.1875 46.1758 43.1875C46.4531 43.1875 46.7109 43.2344 46.9492 43.3281C47.2109 43.4326 47.4473 43.5938 47.6602 43.8125L59.6719 55.8242C59.9316 55.6553 60.1934 55.4922 60.4531 55.3359C60.7266 55.1797 60.9863 55.043 61.2344 54.9258L50.8828 44.5742C50.4785 44.1709 50.2773 43.6826 50.2773 43.1094C50.2773 42.5234 50.4785 42.0225 50.8828 41.6055C51.2871 41.2021 51.7754 41 52.3477 41C52.9336 41 53.4355 41.2021 53.8516 41.6055L68.3047 56.0977C68.5645 56.3447 68.7871 56.4756 68.9688 56.4883C69.1504 56.4883 69.3145 56.417 69.457 56.2734C69.5176 56.2119 69.5645 56.1406 69.5977 56.0586C69.627 55.9834 69.6465 55.8984 69.6523 55.8047C69.666 55.5967 69.6074 55.3359 69.4766 55.0234L67.3672 49.0859C67.0293 48.0967 66.8594 47.3086 66.8594 46.7227C66.873 46.124 67.0996 45.6094 67.543 45.1797C67.9336 44.7891 68.3633 44.5869 68.832 44.5742C69.3145 44.5479 69.7363 44.7236 70.1016 45.1016C70.2305 45.2314 70.3711 45.4043 70.5195 45.6191C70.623 45.7705 70.7305 45.9434 70.8438 46.1367C71.0215 46.4326 71.2012 46.75 71.3828 47.0898L71.6836 47.6602C71.9824 48.2197 72.2637 48.7539 72.5234 49.2617C73.0312 50.1992 73.5059 51.1104 73.9492 51.9961C74.4043 52.8682 74.8281 53.7217 75.2188 54.5547C75.6094 55.3877 75.9668 56.2021 76.293 56.9961C76.6191 57.79 76.9043 58.5713 77.1523 59.3398C78.0762 62.1006 78.2852 64.6592 77.7773 67.0156C77.2832 69.3594 75.9355 71.6318 73.7344 73.832C72.3672 75.1992 70.8887 76.2344 69.3008 76.9375C67.7129 77.6533 66.0723 78.0186 64.3789 78.0312C63.6914 78.0361 63.0039 77.9795 62.3164 77.8604C61.3281 77.6885 60.3418 77.3877 59.3594 76.957Z" fill="white"/>
</svg>
