<svg width="40" height="40" viewBox="0 0 40 40" fill="none" xmlns="http://www.w3.org/2000/svg">
<path d="M27.7211 16.4994C27.732 16.6616 27.732 16.8238 27.732 16.9875C27.732 21.9751 24.0408 27.7274 17.2914 27.7274V27.7244C15.2975 27.7274 13.3451 27.1399 11.6667 26.0322C11.9566 26.0681 12.2479 26.086 12.54 26.0868C14.1924 26.0883 15.7974 25.518 17.0973 24.4678C15.5271 24.4372 14.1502 23.3841 13.6692 21.8466C14.2192 21.9557 14.786 21.9333 15.3259 21.7816C13.614 21.4258 12.3824 19.8786 12.3824 18.0818C12.3824 18.0653 12.3824 18.0496 12.3824 18.0339C12.8924 18.3262 13.4636 18.4884 14.0478 18.5063C12.4354 17.3979 11.9384 15.1914 12.9121 13.4664C14.7751 15.8245 17.5239 17.2581 20.4746 17.4098C20.1789 16.0988 20.5829 14.725 21.5362 13.8034C23.0141 12.3744 25.3386 12.4476 26.7279 13.9671C27.5496 13.8005 28.3373 13.4903 29.0581 13.0508C28.7842 13.9245 28.2109 14.6667 27.445 15.1384C28.1724 15.0502 28.883 14.8499 29.5522 14.5442C29.0595 15.3035 28.439 15.965 27.7211 16.4994Z" fill="white"/>
</svg>
