<svg width="12" height="12" viewBox="0 0 12 12" fill="none" xmlns="http://www.w3.org/2000/svg">
<path fill-rule="evenodd" clip-rule="evenodd" d="M6.0052 10.9068H6.0052C6.80577 10.9079 7.5943 10.7119 8.30119 10.3361C8.56427 10.1896 8.89636 10.284 9.04294 10.547C9.18952 10.8101 9.09508 11.1422 8.83201 11.2887H8.83201C5.91083 12.8523 2.2751 11.752 0.711352 8.83114C-0.852395 5.91025 0.248005 2.27487 3.16917 0.711282C6.09034 -0.852312 9.72608 0.24798 11.2898 3.16886C11.7559 4.03949 11.9999 5.01172 12 5.99926C12 7.6556 11.0242 8.99835 9.82007 8.99835C9.03378 8.99816 8.30866 8.57417 7.92294 7.88907H7.92294C7.44178 8.72404 6.56006 9.24777 5.59658 9.2709C4.01637 9.2709 2.73545 7.8061 2.73545 5.99918C2.73545 4.19226 4.01623 2.72763 5.59644 2.72763C6.38943 2.7383 7.13729 3.09834 7.64014 3.71153V3.57449V3.57449C7.63402 3.30065 7.82508 3.0618 8.0936 3.00759C8.39063 2.95733 8.67218 3.15736 8.72244 3.45437C8.72754 3.48445 8.73009 3.5149 8.73009 3.54541V6.81718V6.81719C8.72988 7.41929 9.21786 7.90756 9.82002 7.90776C9.82004 7.90776 9.82006 7.90776 9.82008 7.90776C10.422 7.90776 10.91 7.05329 10.91 5.99926V5.99932C10.9087 3.29029 8.71131 1.09525 6.00201 1.09658C3.29272 1.09791 1.09746 3.29508 1.0988 6.00412C1.10012 8.71249 3.2965 10.9073 6.00515 10.9069L6.0052 10.9068ZM5.73262 3.81799C4.67919 3.81799 3.82521 4.79454 3.82521 5.99915C3.82521 7.20377 4.67919 8.18029 5.73262 8.18029C6.78605 8.18029 7.64008 7.20377 7.64008 5.99915C7.64008 4.79454 6.78616 3.8181 5.73267 3.8181L5.73262 3.81799Z" fill="#798088"/>
</svg>
